<svg width="595" height="181" viewBox="0 0 595 181" fill="none" xmlns="http://www.w3.org/2000/svg">
<path d="M45.425 138.318H55.64C63.358 138.318 70.2437 137.107 76.297 134.686C82.3503 132.265 87.42 128.935 91.506 124.698C95.7433 120.461 98.9213 115.467 101.04 109.716C103.31 103.814 104.445 97.3823 104.445 90.421C104.445 83.611 103.31 77.255 101.04 71.353C98.77 65.451 95.5163 60.3813 91.279 56.144C87.193 51.9067 82.1233 48.5773 76.07 46.156C70.0167 43.7347 63.2067 42.524 55.64 42.524H45.425V138.318ZM0.933001 4.842H66.763C78.4157 4.842 89.3117 7.18766 99.451 11.879C109.742 16.5703 118.67 22.8507 126.237 30.72C133.955 38.438 140.008 47.518 144.397 57.96C148.786 68.2507 150.98 79.071 150.98 90.421C150.98 101.62 148.786 112.44 144.397 122.882C140.16 133.173 134.182 142.253 126.464 150.122C118.897 157.991 109.969 164.272 99.678 168.963C89.5387 173.654 78.567 176 66.763 176H0.933001V4.842ZM274.498 42.524H221.607V71.126H271.547V108.808H221.607V138.318H274.498V176H177.115V4.842H274.498V42.524ZM334.724 4.842L376.038 109.035L417.579 4.842H465.93L393.744 176H358.332L286.373 4.842H334.724ZM569.368 48.653C564.525 44.7183 559.682 41.843 554.84 40.027C549.997 38.0597 545.306 37.076 540.766 37.076C535.015 37.076 530.324 38.438 526.692 41.162C523.06 43.886 521.244 47.4423 521.244 51.831C521.244 54.8577 522.152 57.3547 523.968 59.322C525.784 61.2893 528.129 63.0297 531.005 64.543C534.031 65.905 537.361 67.1157 540.993 68.175C544.776 69.2343 548.484 70.3693 552.116 71.58C566.644 76.4227 577.237 82.93 583.896 91.102C590.706 99.1227 594.111 109.64 594.111 122.655C594.111 131.432 592.597 139.377 589.571 146.49C586.695 153.603 582.382 159.732 576.632 164.877C571.032 169.871 564.071 173.73 555.748 176.454C547.576 179.329 538.269 180.767 527.827 180.767C506.186 180.767 486.134 174.335 467.672 161.472L486.74 125.606C493.398 131.508 499.981 135.897 506.489 138.772C512.996 141.647 519.428 143.085 525.784 143.085C533.048 143.085 538.42 141.42 541.901 138.091C545.533 134.762 547.349 130.978 547.349 126.741C547.349 124.168 546.895 121.974 545.987 120.158C545.079 118.191 543.565 116.45 541.447 114.937C539.328 113.272 536.528 111.759 533.048 110.397C529.718 109.035 525.632 107.522 520.79 105.857C515.039 104.041 509.364 102.074 503.765 99.955C498.317 97.685 493.398 94.734 489.01 91.102C484.772 87.47 481.292 82.93 478.568 77.482C475.995 71.8827 474.709 64.8457 474.709 56.371C474.709 47.8963 476.071 40.254 478.795 33.444C481.67 26.4827 485.605 20.5807 490.599 15.738C495.744 10.744 501.949 6.88499 509.213 4.16099C516.628 1.43699 524.876 0.0749919 533.956 0.0749919C542.43 0.0749919 551.283 1.28566 560.515 3.70699C569.746 5.97699 578.599 9.38199 587.074 13.922L569.368 48.653Z" fill="#ECECED"/>
</svg>
