<svg width="875" height="181" viewBox="0 0 875 181" fill="none" xmlns="http://www.w3.org/2000/svg">
<path d="M97.855 42.524H44.964V71.126H94.904V108.808H44.964V138.318H97.855V176H0.472002V4.842H97.855V42.524ZM158.081 4.842L199.395 109.035L240.936 4.842H289.287L217.101 176H181.689L109.73 4.842H158.081ZM402.336 42.524H349.445V71.126H399.385V108.808H349.445V138.318H402.336V176H304.953V4.842H402.336V42.524ZM432.144 176V4.842H476.636L558.81 109.489V4.842H603.075V176H558.81L476.636 71.353V176H432.144ZM701.624 42.524V176H657.132V42.524H620.585V4.842H738.171V42.524H701.624ZM849.89 48.653C845.047 44.7183 840.205 41.843 835.362 40.027C830.519 38.0597 825.828 37.076 821.288 37.076C815.537 37.076 810.846 38.438 807.214 41.162C803.582 43.886 801.766 47.4423 801.766 51.831C801.766 54.8577 802.674 57.3547 804.49 59.322C806.306 61.2893 808.652 63.0297 811.527 64.543C814.554 65.905 817.883 67.1157 821.515 68.175C825.298 69.2343 829.006 70.3693 832.638 71.58C847.166 76.4227 857.759 82.93 864.418 91.102C871.228 99.1227 874.633 109.64 874.633 122.655C874.633 131.432 873.12 139.377 870.093 146.49C867.218 153.603 862.905 159.732 857.154 164.877C851.555 169.871 844.593 173.73 836.27 176.454C828.098 179.329 818.791 180.767 808.349 180.767C786.708 180.767 766.657 174.335 748.194 161.472L767.262 125.606C773.921 131.508 780.504 135.897 787.011 138.772C793.518 141.647 799.95 143.085 806.306 143.085C813.57 143.085 818.942 141.42 822.423 138.091C826.055 134.762 827.871 130.978 827.871 126.741C827.871 124.168 827.417 121.974 826.509 120.158C825.601 118.191 824.088 116.45 821.969 114.937C819.85 113.272 817.051 111.759 813.57 110.397C810.241 109.035 806.155 107.522 801.312 105.857C795.561 104.041 789.886 102.074 784.287 99.955C778.839 97.685 773.921 94.734 769.532 91.102C765.295 87.47 761.814 82.93 759.09 77.482C756.517 71.8827 755.231 64.8457 755.231 56.371C755.231 47.8963 756.593 40.254 759.317 33.444C762.192 26.4827 766.127 20.5807 771.121 15.738C776.266 10.744 782.471 6.88499 789.735 4.16099C797.15 1.43699 805.398 0.0749919 814.478 0.0749919C822.953 0.0749919 831.806 1.28566 841.037 3.70699C850.268 5.97699 859.121 9.38199 867.596 13.922L849.89 48.653Z" fill="#ECECED"/>
</svg>
