<svg width="1022" height="181" viewBox="0 0 1022 181" fill="none" xmlns="http://www.w3.org/2000/svg">
<path d="M91.242 80.206H179.545C179.545 89.286 179.167 97.5337 178.41 104.949C177.653 112.364 176.14 119.25 173.87 125.606C170.692 134.535 166.379 142.48 160.931 149.441C155.483 156.251 149.051 162.002 141.636 166.693C134.372 171.233 126.351 174.714 117.574 177.135C108.797 179.556 99.5653 180.767 89.88 180.767C76.5627 180.767 64.3803 178.573 53.333 174.184C42.437 169.795 33.0543 163.666 25.185 155.797C17.3157 147.776 11.1867 138.242 6.798 127.195C2.40933 115.996 0.215 103.663 0.215 90.194C0.215 76.8767 2.33367 64.6943 6.571 53.647C10.9597 42.4483 17.0887 32.9143 24.958 25.045C32.9787 17.1757 42.5883 11.0467 53.787 6.65799C64.9857 2.26932 77.4707 0.0749919 91.242 0.0749919C109.099 0.0749919 124.762 3.93399 138.231 11.652C151.7 19.37 162.369 31.3253 170.238 47.518L128.016 64.997C124.081 55.6143 118.936 48.88 112.58 44.794C106.375 40.708 99.2627 38.665 91.242 38.665C84.5833 38.665 78.53 39.9513 73.082 42.524C67.634 44.9453 62.9427 48.5017 59.008 53.193C55.2247 57.733 52.198 63.2567 49.928 69.764C47.8093 76.2713 46.75 83.5353 46.75 91.556C46.75 98.82 47.658 105.554 49.474 111.759C51.4413 117.964 54.3167 123.336 58.1 127.876C61.8833 132.416 66.5747 135.972 72.174 138.545C77.7733 140.966 84.2807 142.177 91.696 142.177C96.0847 142.177 100.322 141.723 104.408 140.815C108.494 139.756 112.126 138.167 115.304 136.048C118.633 133.778 121.357 130.903 123.476 127.422C125.595 123.941 127.032 119.704 127.789 114.71H91.242V80.206ZM249.888 81.341H258.287C267.065 81.341 273.799 79.525 278.49 75.893C283.182 72.261 285.527 67.04 285.527 60.23C285.527 53.42 283.182 48.199 278.49 44.567C273.799 40.935 267.065 39.119 258.287 39.119H249.888V81.341ZM347.725 176H292.337L249.888 110.17V176H205.396V4.842H274.631C284.165 4.842 292.489 6.27966 299.601 9.155C306.714 11.879 312.54 15.6623 317.08 20.505C321.772 25.3477 325.252 30.947 327.522 37.303C329.944 43.659 331.154 50.469 331.154 57.733C331.154 70.7477 327.976 81.341 321.62 89.513C315.416 97.5337 306.184 102.982 293.926 105.857L347.725 176ZM399.779 90.421C399.779 97.231 401.066 103.511 403.638 109.262C406.211 115.013 409.692 120.007 414.08 124.244C418.469 128.481 423.539 131.811 429.289 134.232C435.191 136.502 441.396 137.637 447.903 137.637C454.411 137.637 460.54 136.502 466.29 134.232C472.192 131.811 477.338 128.481 481.726 124.244C486.266 120.007 489.823 115.013 492.395 109.262C494.968 103.511 496.254 97.231 496.254 90.421C496.254 83.611 494.968 77.3307 492.395 71.58C489.823 65.8293 486.266 60.8353 481.726 56.598C477.338 52.3607 472.192 49.107 466.29 46.837C460.54 44.4157 454.411 43.205 447.903 43.205C441.396 43.205 435.191 44.4157 429.289 46.837C423.539 49.107 418.469 52.3607 414.08 56.598C409.692 60.8353 406.211 65.8293 403.638 71.58C401.066 77.3307 399.779 83.611 399.779 90.421ZM353.244 90.421C353.244 77.709 355.59 65.905 360.281 55.009C364.973 43.9617 371.48 34.352 379.803 26.18C388.127 18.008 398.039 11.652 409.54 7.112C421.193 2.42066 433.981 0.0749919 447.903 0.0749919C461.675 0.0749919 474.387 2.42066 486.039 7.112C497.692 11.652 507.68 18.008 516.003 26.18C524.478 34.352 531.061 43.9617 535.752 55.009C540.444 65.905 542.789 77.709 542.789 90.421C542.789 103.133 540.444 115.013 535.752 126.06C531.061 136.956 524.478 146.49 516.003 154.662C507.68 162.834 497.692 169.266 486.039 173.957C474.387 178.497 461.675 180.767 447.903 180.767C433.981 180.767 421.193 178.497 409.54 173.957C398.039 169.266 388.127 162.834 379.803 154.662C371.48 146.49 364.973 136.956 360.281 126.06C355.59 115.013 353.244 103.133 353.244 90.421ZM613.115 4.842V97.912C613.115 102.906 613.266 108.051 613.569 113.348C614.023 118.493 615.158 123.185 616.974 127.422C618.941 131.659 621.968 135.14 626.054 137.864C630.14 140.437 635.891 141.723 643.306 141.723C650.721 141.723 656.396 140.437 660.331 137.864C664.417 135.14 667.444 131.659 669.411 127.422C671.378 123.185 672.513 118.493 672.816 113.348C673.27 108.051 673.497 102.906 673.497 97.912V4.842H717.762V104.041C717.762 130.676 711.633 150.122 699.375 162.38C687.268 174.638 668.579 180.767 643.306 180.767C618.033 180.767 599.268 174.638 587.01 162.38C574.752 150.122 568.623 130.676 568.623 104.041V4.842H613.115ZM795.948 83.384H810.703C827.047 83.384 835.219 76.2713 835.219 62.046C835.219 47.8207 827.047 40.708 810.703 40.708H795.948V83.384ZM795.948 176H751.456V4.842H822.28C841.499 4.842 856.178 9.836 866.318 19.824C876.608 29.812 881.754 43.886 881.754 62.046C881.754 80.206 876.608 94.28 866.318 104.268C856.178 114.256 841.499 119.25 822.28 119.25H795.948V176ZM997.009 48.653C992.167 44.7183 987.324 41.843 982.481 40.027C977.639 38.0597 972.947 37.076 968.407 37.076C962.657 37.076 957.965 38.438 954.333 41.162C950.701 43.886 948.885 47.4423 948.885 51.831C948.885 54.8577 949.793 57.3547 951.609 59.322C953.425 61.2893 955.771 63.0297 958.646 64.543C961.673 65.905 965.002 67.1157 968.634 68.175C972.418 69.2343 976.125 70.3693 979.757 71.58C994.285 76.4227 1004.88 82.93 1011.54 91.102C1018.35 99.1227 1021.75 109.64 1021.75 122.655C1021.75 131.432 1020.24 139.377 1017.21 146.49C1014.34 153.603 1010.02 159.732 1004.27 164.877C998.674 169.871 991.713 173.73 983.389 176.454C975.217 179.329 965.91 180.767 955.468 180.767C933.828 180.767 913.776 174.335 895.313 161.472L914.381 125.606C921.04 131.508 927.623 135.897 934.13 138.772C940.638 141.647 947.069 143.085 953.425 143.085C960.689 143.085 966.062 141.42 969.542 138.091C973.174 134.762 974.99 130.978 974.99 126.741C974.99 124.168 974.536 121.974 973.628 120.158C972.72 118.191 971.207 116.45 969.088 114.937C966.97 113.272 964.17 111.759 960.689 110.397C957.36 109.035 953.274 107.522 948.431 105.857C942.681 104.041 937.006 102.074 931.406 99.955C925.958 97.685 921.04 94.734 916.651 91.102C912.414 87.47 908.933 82.93 906.209 77.482C903.637 71.8827 902.35 64.8457 902.35 56.371C902.35 47.8963 903.712 40.254 906.436 33.444C909.312 26.4827 913.246 20.5807 918.24 15.738C923.386 10.744 929.59 6.88499 936.854 4.16099C944.27 1.43699 952.517 0.0749919 961.597 0.0749919C970.072 0.0749919 978.925 1.28566 988.156 3.70699C997.388 5.97699 1006.24 9.38199 1014.72 13.922L997.009 48.653Z" fill="#ECECED"/>
</svg>
