<svg width="20" height="23" viewBox="0 0 20 23" fill="none" xmlns="http://www.w3.org/2000/svg">
  <path d="M9.78037 15.9624C17.8598 15.9624 19.4299 19.4552 19.5935 22.2951C19.6262 22.5563 19.3972 22.7848 19.1355 22.7848L17.0093 22.8827C16.8458 22.8827 16.5841 22.7195 16.5514 22.5563C15.8972 20.4671 13.5748 19.6837 9.78037 19.6837C5.98598 19.6837 3.66355 20.4671 3.00934 22.5563C2.94392 22.7195 2.71495 22.8827 2.5514 22.8827L0.457942 22.7848C0.19626 22.7521 0 22.5889 0 22.2951C0.163551 19.4552 1.70093 15.9624 9.78037 15.9624Z" fill="#252525"/>
  <path d="M9.74762 0C13.3458 0 16.3224 3.03579 16.3224 6.59388C16.3224 10.2172 13.3458 13.253 9.74762 13.253C6.14949 13.253 3.17285 10.2172 3.17285 6.59388C3.20556 3.03579 6.14949 0 9.74762 0ZM9.74762 9.17267C11.1215 9.17267 12.2336 7.99752 12.2336 6.59388C12.2336 5.22287 11.1215 4.08037 9.74762 4.08037C8.37379 4.08037 7.26164 5.22287 7.26164 6.59388C7.26164 7.99752 8.37379 9.17267 9.74762 9.17267Z" fill="#252525"/>
</svg>
