<svg width="14" height="14" viewBox="0 0 14 14" fill="none" xmlns="http://www.w3.org/2000/svg">
<path d="M1.68229 12.1746H12.337V10.3676C12.337 10.2398 12.453 10.1121 12.6077 10.1121H13.7293C13.8646 10.1121 14 10.2216 14 10.3676V13.7444C14 13.8722 13.884 13.9999 13.7293 13.9999H0.3287C0.193341 13.9999 0.0579834 13.8904 0.0579834 13.7444V10.3676C0.0579834 10.2398 0.174004 10.1121 0.3287 10.1121H1.45025C1.58561 10.1121 1.70163 10.2216 1.70163 10.3676V12.1746H1.68229Z" fill="#FF4A54"/>
<path d="M13.768 1.18644C13.7486 1.18644 13.7293 1.18644 13.7099 1.18644H12.5884H10.8867V0.25554C10.8867 0.127769 10.7707 0 10.616 0H9.49447C9.33978 0 9.22375 0.109517 9.22375 0.25554V1.18644H4.7569V0.25554C4.7569 0.127769 4.64088 0 4.50552 0H3.38398C3.24862 0 3.11326 0.109517 3.11326 0.25554V1.18644H1.39226H0.270717C0.25138 1.18644 0.23204 1.18644 0.212702 1.18644C0.0966804 1.20469 0 1.31421 0 1.42373V4.6545C0 4.76402 0.0966804 4.87353 0.212702 4.89179C0.23204 4.89179 0.25138 4.89179 0.270717 4.89179H1.39226H12.5497H13.6713C13.6906 4.89179 13.7099 4.89179 13.7293 4.89179C13.8453 4.87353 13.942 4.76402 13.942 4.6545V1.44198C13.9807 1.31421 13.884 1.22295 13.768 1.18644Z" fill="#FF4A54"/>
<path d="M3.80939 10.3135C4.17679 9.87545 5.08563 8.68901 5.45303 8.15967C5.53038 8.05015 5.60773 7.88588 5.60773 7.7216C5.60773 7.50257 5.41436 7.30179 5.06629 7.30179C4.81491 7.30179 4.58287 7.46606 4.46684 7.59383C4.40883 7.64859 4.35082 7.64859 4.29281 7.59383L3.90607 7.22878C3.8674 7.19227 3.84806 7.11925 3.90607 7.08275C3.90607 7.08275 4.40883 6.51691 5.14364 6.51691C6.03314 6.51691 6.55525 7.04624 6.55525 7.70335C6.55525 8.01365 6.45856 8.19618 6.3232 8.46997C6.12983 8.79853 5.60773 9.43738 5.31768 9.82069H6.40055C6.45856 9.82069 6.51657 9.87545 6.51657 9.93021V10.4595C6.51657 10.5143 6.45856 10.5691 6.40055 10.5691H3.92541C3.84806 10.5691 3.80939 10.5143 3.80939 10.4595V10.3135Z" fill="#FF4A54"/>
<path d="M7.0387 8.54243C7.0387 7.26473 7.6188 6.49811 8.62433 6.49811C9.62985 6.49811 10.21 7.26473 10.21 8.54243C10.21 9.82014 9.62985 10.5868 8.62433 10.5868C7.6188 10.5868 7.0387 9.82014 7.0387 8.54243ZM9.22378 8.54243C9.22378 7.77581 9.01107 7.33774 8.64367 7.33774C8.25693 7.33774 8.06356 7.77581 8.06356 8.54243C8.06356 9.30906 8.27626 9.74713 8.64367 9.74713C9.01107 9.74713 9.22378 9.30906 9.22378 8.54243Z" fill="#FF4A54"/>
</svg>
