<svg width="592" height="181" viewBox="0 0 592 181" fill="none" xmlns="http://www.w3.org/2000/svg">
<path d="M101.15 4.842V123.563C101.15 128.557 100.847 133.173 100.242 137.41C99.788 141.647 98.9557 145.279 97.745 148.306C95.7777 153.149 93.0537 157.613 89.573 161.699C86.2437 165.634 82.309 169.039 77.769 171.914C73.229 174.638 68.1593 176.757 62.56 178.27C57.112 179.935 51.3613 180.767 45.308 180.767C26.9967 180.767 12.0903 172.368 0.589 155.57L29.645 125.833C30.4017 130.978 32.0663 135.064 34.639 138.091C37.2117 141.118 40.3897 142.631 44.173 142.631C52.4963 142.631 56.658 136.048 56.658 122.882V4.842H101.15ZM173.852 90.421C173.852 97.231 175.138 103.511 177.711 109.262C180.284 115.013 183.764 120.007 188.153 124.244C192.542 128.481 197.611 131.811 203.362 134.232C209.264 136.502 215.469 137.637 221.976 137.637C228.483 137.637 234.612 136.502 240.363 134.232C246.265 131.811 251.41 128.481 255.799 124.244C260.339 120.007 263.895 115.013 266.468 109.262C269.041 103.511 270.327 97.231 270.327 90.421C270.327 83.611 269.041 77.3307 266.468 71.58C263.895 65.8293 260.339 60.8353 255.799 56.598C251.41 52.3607 246.265 49.107 240.363 46.837C234.612 44.4157 228.483 43.205 221.976 43.205C215.469 43.205 209.264 44.4157 203.362 46.837C197.611 49.107 192.542 52.3607 188.153 56.598C183.764 60.8353 180.284 65.8293 177.711 71.58C175.138 77.3307 173.852 83.611 173.852 90.421ZM127.317 90.421C127.317 77.709 129.663 65.905 134.354 55.009C139.045 43.9617 145.553 34.352 153.876 26.18C162.199 18.008 172.112 11.652 183.613 7.112C195.266 2.42066 208.053 0.0749919 221.976 0.0749919C235.747 0.0749919 248.459 2.42066 260.112 7.112C271.765 11.652 281.753 18.008 290.076 26.18C298.551 34.352 305.134 43.9617 309.825 55.009C314.516 65.905 316.862 77.709 316.862 90.421C316.862 103.133 314.516 115.013 309.825 126.06C305.134 136.956 298.551 146.49 290.076 154.662C281.753 162.834 271.765 169.266 260.112 173.957C248.459 178.497 235.747 180.767 221.976 180.767C208.053 180.767 195.266 178.497 183.613 173.957C172.112 169.266 162.199 162.834 153.876 154.662C145.553 146.49 139.045 136.956 134.354 126.06C129.663 115.013 127.317 103.133 127.317 90.421ZM387.188 4.842V176H342.696V4.842H387.188ZM420.674 176V4.842H465.166L547.34 109.489V4.842H591.605V176H547.34L465.166 71.353V176H420.674Z" fill="#ECECED"/>
</svg>
