<svg width="20" height="31" viewBox="0 0 20 31" fill="none" xmlns="http://www.w3.org/2000/svg">
<path d="M9.68776 30.8564L3.47984 24.5606C3.29101 24.3691 3.29101 24.0819 3.47984 23.8904L5.27377 22.0711C5.4626 21.8796 5.74585 21.8796 5.93469 22.0711L9.71137 25.9012C9.9002 26.0927 10.1835 26.0927 10.3723 25.9012L14.149 22.0711C14.3378 21.8796 14.621 21.8796 14.8099 22.0711L16.6038 23.8904C16.7926 24.0819 16.7926 24.3691 16.6038 24.5606L10.3959 30.8564C10.1598 31.0479 9.85299 31.0479 9.68776 30.8564Z" fill="#E05B51"/>
<path d="M5.25016 8.90502L3.45624 7.08571C3.2674 6.89421 3.2674 6.60695 3.45624 6.41544L9.68776 0.143629C9.87659 -0.0478764 10.1598 -0.0478764 10.3487 0.143629L16.5566 6.43938C16.7454 6.63089 16.7454 6.91815 16.5566 7.10965L14.7627 8.92896C14.5738 9.12046 14.2906 9.12046 14.1018 8.92896L10.3251 5.09884C10.1362 4.90734 9.85299 4.90734 9.66416 5.09884L5.88748 8.92896C5.72225 9.09653 5.439 9.09653 5.25016 8.90502Z" fill="#E05B51"/>
<path d="M18.3033 15.1768C18.1381 15.0093 17.8784 14.9853 17.7132 15.129C17.1231 15.5838 16.2261 16.1104 15.1639 16.1583C13.8893 16.2301 12.5911 15.6077 11.2929 14.339C9.38091 12.4718 7.28013 11.5622 5.08493 11.634C2.93695 11.7058 1.19023 12.7351 0.175251 13.5251C-0.0371874 13.6927 -0.0607916 14.0278 0.128042 14.2193L1.73313 15.8232C1.87476 16.0147 2.1108 16.0386 2.29963 15.895C2.96055 15.4162 3.99914 14.8656 5.20296 14.8178C6.52479 14.7938 7.82303 15.3923 9.09766 16.6371C10.9388 18.4324 12.9215 19.3421 14.9515 19.3421C15.0695 19.3421 15.2112 19.3421 15.3292 19.3421C17.3355 19.2224 18.8934 18.2409 19.8376 17.451C20.05 17.2834 20.05 16.9483 19.8612 16.7568L18.3033 15.1768Z" fill="#E05B51"/>
</svg>
