<svg width="147" height="38" viewBox="0 0 147 38" fill="none" xmlns="http://www.w3.org/2000/svg">
<path d="M11.7278 36.8979L4.21271 29.3695C3.98411 29.1405 3.98411 28.797 4.21271 28.568L6.38438 26.3925C6.61297 26.1635 6.95587 26.1635 7.18447 26.3925L11.7564 30.9725C11.985 31.2015 12.3279 31.2015 12.5565 30.9725L17.1284 26.3925C17.357 26.1635 17.6999 26.1635 17.9285 26.3925L20.1002 28.568C20.3288 28.797 20.3288 29.1405 20.1002 29.3695L12.5851 36.8979C12.2993 37.1269 11.9279 37.1269 11.7278 36.8979Z" fill="#FF4A54"/>
<path d="M6.35569 10.6485L4.18402 8.47303C3.95542 8.24403 3.95542 7.90053 4.18402 7.67153L11.7277 0.171751C11.9563 -0.0572502 12.2992 -0.0572502 12.5278 0.171751L20.0429 7.70015C20.2715 7.92915 20.2715 8.27265 20.0429 8.50165L17.8713 10.6772C17.6427 10.9062 17.2998 10.9062 17.0712 10.6772L12.4992 6.09715C12.2706 5.86814 11.9277 5.86814 11.6991 6.09715L7.12721 10.6772C6.92718 10.8775 6.58429 10.8775 6.35569 10.6485Z" fill="#FF4A54"/>
<path d="M22.1574 18.1482C21.9574 17.9478 21.6431 17.9192 21.4431 18.091C20.7287 18.6348 19.6429 19.2646 18.357 19.3218C16.814 19.4077 15.2424 18.6635 13.6708 17.1463C11.3563 14.9136 8.81311 13.8258 6.15567 13.9117C3.55538 13.9976 1.44086 15.2285 0.212153 16.1731C-0.045018 16.3735 -0.0735926 16.7742 0.155004 17.0032L2.09808 18.9211C2.26953 19.1501 2.55527 19.1787 2.78387 19.007C3.58396 18.4345 4.84124 17.7761 6.29854 17.7188C7.89872 17.6902 9.47033 18.4058 11.0134 19.8943C13.2422 22.0412 15.6424 23.129 18.0999 23.129C18.2427 23.129 18.4142 23.129 18.5571 23.129C20.9859 22.9859 22.8718 21.8122 24.0148 20.8676C24.272 20.6672 24.272 20.2665 24.0434 20.0375L22.1574 18.1482Z" fill="#FF4A54"/>
<path d="M33.8445 8.75915C33.8445 8.4729 34.1017 8.2439 34.3874 8.2439H35.1018L46.5316 19.2646H46.5602V9.07402C46.5602 8.78777 46.7888 8.53015 47.1031 8.53015H50.532C50.8178 8.53015 51.075 8.78777 51.075 9.07402V28.3673C51.075 28.6536 50.8178 28.8826 50.532 28.8826H50.0749C49.9891 28.8826 49.7605 28.7967 49.7034 28.7395L38.3878 17.3467H38.3593V28.0525C38.3593 28.3387 38.1307 28.5963 37.8164 28.5963H34.416C34.1302 28.5963 33.8731 28.3387 33.8731 28.0525L33.8445 8.75915Z" fill="#FF4A54"/>
<path d="M53.3037 9.07415C53.3037 8.7879 53.5323 8.53027 53.8466 8.53027H62.3904C65.8194 8.53027 68.6197 11.3069 68.6197 14.7133C68.6197 17.3468 66.8766 19.4651 64.3907 20.4669L68.334 27.7663C68.534 28.1385 68.334 28.5965 67.8482 28.5965H64.0478C63.8192 28.5965 63.6477 28.4533 63.5906 28.3388L59.7901 20.7532H57.8185V28.0526C57.8185 28.3388 57.5613 28.5965 57.2756 28.5965H53.8752C53.5609 28.5965 53.3323 28.3388 53.3323 28.0526V9.07415H53.3037ZM62.0475 17.0892C63.2191 17.0892 64.2192 16.0014 64.2192 14.7992C64.2192 13.5969 63.2191 12.6237 62.0475 12.6237H57.8185V17.0892H62.0475Z" fill="#FF4A54"/>
<path d="M68.134 9.27453C67.9626 8.9024 68.1912 8.53027 68.6198 8.53027H72.4202C72.6488 8.53027 72.8488 8.70202 72.906 8.84515L77.6208 19.3219H77.7922L82.5071 8.84515C82.5642 8.70202 82.7642 8.53027 82.9928 8.53027H86.7932C87.2219 8.53027 87.4505 8.9024 87.279 9.27453L78.3066 28.5678C78.2209 28.7396 78.0494 28.8827 77.8208 28.8827H77.5351C77.3065 28.8827 77.135 28.7396 77.0493 28.5678L68.134 9.27453Z" fill="#FF4A54"/>
<path d="M95.2798 9.07415C95.2798 8.7879 95.5084 8.53027 95.7941 8.53027H102.766C108.281 8.53027 112.825 13.0244 112.825 18.5491C112.825 24.1023 108.31 28.6251 102.766 28.6251H95.7941C95.5084 28.6251 95.2798 28.3675 95.2798 28.0812V9.07415ZM102.481 24.3599C105.71 24.3599 108.053 21.8123 108.053 18.5491C108.053 15.3144 105.71 12.7668 102.481 12.7668H99.7374V24.3886H102.481V24.3599Z" fill="#FF4A54"/>
<path d="M113.939 9.07415C113.939 8.7879 114.168 8.53027 114.482 8.53027H126.34C126.655 8.53027 126.883 8.7879 126.883 9.07415V12.1943C126.883 12.4805 126.655 12.7382 126.34 12.7382H118.425V16.2877H124.94C125.226 16.2877 125.483 16.5453 125.483 16.8315V19.9517C125.483 20.2666 125.226 20.4956 124.94 20.4956H118.425V24.3599H126.34C126.655 24.3599 126.883 24.6176 126.883 24.9038V28.0526C126.883 28.3388 126.655 28.5965 126.34 28.5965H114.482C114.168 28.5965 113.939 28.3388 113.939 28.0526V9.07415Z" fill="#FF4A54"/>
<path d="M127.798 9.27453C127.626 8.9024 127.855 8.53027 128.284 8.53027H132.084C132.313 8.53027 132.513 8.70202 132.57 8.84515L137.285 19.3219H137.456L142.171 8.84515C142.228 8.70202 142.428 8.53027 142.657 8.53027H146.457C146.886 8.53027 147.114 8.9024 146.943 9.27453L137.97 28.5678C137.885 28.7396 137.713 28.8827 137.485 28.8827H137.199C136.97 28.8827 136.799 28.7396 136.713 28.5678L127.798 9.27453Z" fill="#FF4A54"/>
</svg>
