<svg width="25" height="36" viewBox="0 0 25 36" fill="none" xmlns="http://www.w3.org/2000/svg">
<path d="M12.0956 29.3546L6.33983 23.6888L3.32422 26.6593L12.1163 35.312L20.9063 26.6593L17.8907 23.6908L12.0956 29.3546Z" fill="white"/>
<path d="M12.1349 5.9594L17.8907 11.6232L20.9063 8.65469L12.1163 0L3.32422 8.65469L6.33983 11.6232L12.1349 5.9594Z" fill="white"/>
<path d="M21.5712 16.2992L21.2087 15.9465L20.8815 16.3318C20.867 16.3481 19.4669 17.9751 17.5676 18.075C16.3001 18.1422 14.9745 17.5 13.62 16.1687C11.3748 13.9586 8.95571 12.9066 6.43096 13.0432C3.29936 13.2145 1.10393 15.2084 0.304461 16.0586L0 16.3828L2.67594 19.0169L3.0384 19.3716L3.36564 18.9843C3.38014 18.968 4.7761 17.3369 6.66914 17.235C7.92841 17.1657 9.25395 17.8058 10.6064 19.1372C12.7232 21.2208 15.0014 22.279 17.375 22.279C17.5158 22.279 17.6567 22.2749 17.7975 22.2667C20.9395 22.0995 23.1411 20.1076 23.9406 19.2575L24.245 18.9333L21.5712 16.2992Z" fill="white"/>
</svg>
