<svg width="224" height="56" viewBox="0 0 224 56" fill="none" xmlns="http://www.w3.org/2000/svg">
<path d="M17.9195 55.7689L6.45288 44.3686C6.14297 44.0605 6.14297 43.5213 6.45288 43.2132L9.7844 39.9009C10.0943 39.5928 10.6367 39.5928 10.9466 39.9009L17.9195 46.8335C18.2294 47.1417 18.7718 47.1417 19.0817 46.8335L26.0546 39.9009C26.3646 39.5928 26.9069 39.5928 27.2168 39.9009L30.5483 43.2132C30.8582 43.5213 30.8582 44.0605 30.5483 44.3686L19.0817 55.7689C18.7718 56.077 18.2294 56.077 17.9195 55.7689Z" fill="#2F2F2F"/>
<path d="M9.70693 16.099L6.3754 12.7868C6.06549 12.4787 6.06549 11.9395 6.3754 11.6314L17.9195 0.231087C18.2294 -0.0770289 18.7718 -0.0770289 19.0817 0.231087L30.5483 11.6314C30.8582 11.9395 30.8582 12.4787 30.5483 12.7868L27.2168 16.099C26.9069 16.4072 26.3646 16.4072 26.0546 16.099L19.0817 9.16644C18.7718 8.85832 18.2294 8.85832 17.9195 9.16644L10.9466 16.099C10.5592 16.4072 10.0943 16.4072 9.70693 16.099Z" fill="#2F2F2F"/>
<path d="M33.8024 27.4223C33.4925 27.1142 33.0276 27.1142 32.7177 27.3452C31.633 28.1926 30.006 29.1169 27.9916 29.1939C25.6673 29.271 23.2655 28.1926 20.8637 25.8817C17.2997 22.4924 13.5033 20.8748 9.39702 20.9518C5.44567 21.1829 2.19162 23.0316 0.332165 24.4181C-0.0552217 24.7263 -0.132699 25.3425 0.254688 25.6506L3.19883 28.5777C3.50874 28.8858 3.9736 28.8858 4.28351 28.6547C5.52315 27.8074 7.3826 26.806 9.62945 26.729C12.0312 26.652 14.433 27.8074 16.8348 30.0413C20.2438 33.2765 23.8853 34.9711 27.6042 34.9711C27.8366 34.9711 28.0691 34.9711 28.3015 34.9711C32.0204 34.74 34.8871 32.9683 36.5916 31.5818C36.979 31.2737 36.979 30.6575 36.669 30.3494L33.8024 27.4223Z" fill="#2F2F2F"/>
<path d="M51.5447 13.249C51.5447 12.7868 51.9321 12.4787 52.3969 12.4787H53.4816L70.8366 29.1169H70.914V13.7112C70.914 13.249 71.2239 12.8638 71.7663 12.8638H76.9573C77.4221 12.8638 77.8095 13.249 77.8095 13.7112V42.8281C77.8095 43.2903 77.4221 43.5984 76.9573 43.5984H76.26C76.105 43.5984 75.7951 43.4443 75.7176 43.3673L58.5177 26.1898H58.4402V42.3659C58.4402 42.8281 58.0528 43.2132 57.5879 43.2132H52.3969C51.9321 43.2132 51.5447 42.8281 51.5447 42.3659V13.249Z" fill="#2F2F2F"/>
<path d="M81.2185 13.7111C81.2185 13.249 81.5284 12.8638 82.0708 12.8638H95.087C100.278 12.8638 104.617 17.1004 104.617 22.1843C104.617 26.1898 101.982 29.348 98.1861 30.8886L104.152 41.9037C104.462 42.4429 104.152 43.1362 103.377 43.1362H97.5662C97.2563 43.1362 96.9464 42.9051 96.8689 42.751L91.0581 31.2737H88.0365V42.3659C88.0365 42.8281 87.6491 43.2132 87.1843 43.2132H81.9933C81.5284 43.2132 81.141 42.8281 81.141 42.3659V13.7111H81.2185ZM94.4672 25.8047C96.2491 25.8047 97.7987 24.1871 97.7987 22.3384C97.7987 20.4897 96.2491 19.0261 94.4672 19.0261H88.0365V25.8047H94.4672Z" fill="#2F2F2F"/>
<path d="M103.764 14.0193C103.532 13.4801 103.842 12.8638 104.539 12.8638H110.35C110.737 12.8638 110.97 13.0949 111.125 13.326L118.33 29.1169H118.563L125.768 13.326C125.845 13.0949 126.155 12.8638 126.543 12.8638H132.354C132.973 12.8638 133.361 13.403 133.128 14.0193L119.26 43.1362C119.105 43.3673 118.873 43.5984 118.485 43.5984H118.02C117.71 43.5984 117.4 43.3673 117.246 43.1362L103.764 14.0193Z" fill="#2F2F2F"/>
<path d="M145.06 13.7111C145.06 13.249 145.37 12.8638 145.835 12.8638H156.527C164.972 12.8638 171.79 19.6424 171.79 27.9615C171.79 36.3576 164.894 43.1362 156.527 43.1362H145.912C145.447 43.1362 145.137 42.751 145.137 42.2889V13.7111H145.06ZM156.062 36.8198C161.02 36.8198 164.584 32.9684 164.584 28.0385C164.584 23.1087 161.02 19.2572 156.062 19.2572H151.878V36.8198H156.062Z" fill="#2F2F2F"/>
<path d="M173.494 13.7111C173.494 13.249 173.804 12.8638 174.346 12.8638H192.399C192.863 12.8638 193.251 13.249 193.251 13.7111V18.4099C193.251 18.8721 192.863 19.2572 192.399 19.2572H180.312V24.6492H190.229C190.694 24.6492 191.081 25.0344 191.081 25.4966V30.1953C191.081 30.6575 190.694 31.0426 190.229 31.0426H180.312V36.8968H192.399C192.863 36.8968 193.251 37.282 193.251 37.7442V42.3659C193.251 42.8281 192.863 43.2132 192.399 43.2132H174.346C173.881 43.2132 173.494 42.8281 173.494 42.3659V13.7111Z" fill="#2F2F2F"/>
<path d="M194.568 14.0193C194.335 13.4801 194.645 12.8638 195.343 12.8638H201.153C201.541 12.8638 201.773 13.0949 201.928 13.326L209.134 29.1169H209.366L216.571 13.326C216.649 13.0949 216.959 12.8638 217.346 12.8638H223.157C223.777 12.8638 224.164 13.403 223.932 14.0193L210.063 43.1362C209.908 43.3673 209.676 43.5984 209.289 43.5984H208.824C208.514 43.5984 208.204 43.3673 208.049 43.1362L194.568 14.0193Z" fill="#2F2F2F"/>
</svg>
