<svg width="1259" height="317" viewBox="0 0 1259 317" fill="none" xmlns="http://www.w3.org/2000/svg">
<path d="M100.444 315.531L36.0793 251.153C34.1215 249.195 34.1215 246.257 36.0793 244.299L54.6789 225.695C56.6367 223.737 59.5735 223.737 61.5314 225.695L100.688 264.861C102.646 266.819 105.583 266.819 107.541 264.861L146.698 225.695C148.656 223.737 151.592 223.737 153.55 225.695L172.15 244.299C174.108 246.257 174.108 249.195 172.15 251.153L107.785 315.531C105.338 317.49 102.157 317.49 100.444 315.531Z" fill="#6D777F" fill-opacity="0.1"/>
<path d="M54.4342 91.06L35.8347 72.4564C33.8768 70.4981 33.8768 67.5607 35.8347 65.6024L100.444 1.46871C102.401 -0.48957 105.338 -0.48957 107.296 1.46871L171.66 65.8472C173.618 67.8055 173.618 70.7429 171.66 72.7012L153.061 91.3048C151.103 93.2631 148.166 93.2631 146.208 91.3048L107.051 52.1392C105.094 50.1809 102.157 50.1809 100.199 52.1392L61.042 91.3048C59.3288 93.0183 56.3921 93.0183 54.4342 91.06Z" fill="#6D777F" fill-opacity="0.1"/>
<path d="M189.77 155.194C188.057 153.481 185.365 153.236 183.652 154.705C177.534 159.356 168.234 164.741 157.221 165.23C144.006 165.965 130.545 159.6 117.085 146.627C97.262 127.534 75.481 118.232 52.721 118.966C30.4505 119.7 12.3404 130.226 1.81702 138.304C-0.385562 140.018 -0.630293 143.445 1.32755 145.403L17.9692 161.803C19.4376 163.762 21.8849 164.007 23.8428 162.538C30.6952 157.642 41.4634 152.012 53.9447 151.523C67.6496 151.278 81.1098 157.397 94.3253 170.126C113.414 188.485 133.972 197.787 155.019 197.787C156.242 197.787 157.711 197.787 158.934 197.787C179.736 196.563 195.889 186.527 205.678 178.449C207.88 176.735 207.88 173.308 205.922 171.35L189.77 155.194Z" fill="#6D777F" fill-opacity="0.1"/>
<path d="M289.865 74.9047C289.865 72.4568 292.068 70.4985 294.515 70.4985H300.633L398.526 164.741H398.77V77.5973C398.77 75.1495 400.728 72.9464 403.42 72.9464H432.788C435.235 72.9464 437.438 75.1495 437.438 77.5973V242.582C437.438 245.03 435.235 246.989 432.788 246.989H428.872C428.138 246.989 426.18 246.254 425.691 245.765L328.777 148.34H328.533V239.89C328.533 242.338 326.575 244.541 323.883 244.541H294.76C292.312 244.541 290.11 242.338 290.11 239.89L289.865 74.9047Z" fill="#6D777F" fill-opacity="0.1"/>
<path d="M456.527 77.5953C456.527 75.1474 458.485 72.9443 461.177 72.9443H534.351C563.719 72.9443 587.703 96.6885 587.703 125.818C587.703 148.338 572.774 166.452 551.482 175.02L585.255 237.44C586.968 240.622 585.255 244.539 581.095 244.539H548.546C546.588 244.539 545.119 243.315 544.63 242.335L512.081 177.467H495.194V239.888C495.194 242.335 492.992 244.539 490.544 244.539H461.421C458.729 244.539 456.772 242.335 456.772 239.888V77.5953H456.527ZM531.414 146.135C541.448 146.135 550.014 136.833 550.014 126.552C550.014 116.271 541.448 107.949 531.414 107.949H495.194V146.135H531.414Z" fill="#6D777F" fill-opacity="0.1"/>
<path d="M583.542 79.3088C582.074 76.1265 584.032 72.9443 587.703 72.9443H620.252C622.21 72.9443 623.923 74.413 624.412 75.637L664.793 165.228H666.261L706.642 75.637C707.131 74.413 708.844 72.9443 710.802 72.9443H743.351C747.022 72.9443 748.98 76.1265 747.512 79.3088L670.666 244.294C669.932 245.763 668.464 246.986 666.506 246.986H664.059C662.101 246.986 660.632 245.763 659.898 244.294L583.542 79.3088Z" fill="#6D777F" fill-opacity="0.1"/>
<path d="M816.036 77.5953C816.036 75.1474 817.994 72.9443 820.441 72.9443H880.156C927.389 72.9443 966.301 111.376 966.301 158.619C966.301 206.107 927.634 244.783 880.156 244.783H820.441C817.994 244.783 816.036 242.58 816.036 240.132V77.5953ZM877.709 208.31C905.363 208.31 925.431 186.525 925.431 158.619C925.431 130.958 905.363 109.173 877.709 109.173H854.214V208.555H877.709V208.31Z" fill="#6D777F" fill-opacity="0.1"/>
<path d="M975.846 77.5953C975.846 75.1474 977.803 72.9443 980.496 72.9443H1082.06C1084.75 72.9443 1086.71 75.1474 1086.71 77.5953V104.277C1086.71 106.725 1084.75 108.928 1082.06 108.928H1014.27V139.281H1070.07C1072.51 139.281 1074.72 141.484 1074.72 143.932V170.614C1074.72 173.306 1072.51 175.264 1070.07 175.264H1014.27V208.31H1082.06C1084.75 208.31 1086.71 210.513 1086.71 212.961V239.888C1086.71 242.335 1084.75 244.539 1082.06 244.539H980.496C977.803 244.539 975.846 242.335 975.846 239.888V77.5953Z" fill="#6D777F" fill-opacity="0.1"/>
<path d="M1094.54 79.3088C1093.07 76.1265 1095.03 72.9443 1098.7 72.9443H1131.25C1133.21 72.9443 1134.92 74.413 1135.41 75.637L1175.79 165.228H1177.26L1217.64 75.637C1218.13 74.413 1219.84 72.9443 1221.8 72.9443H1254.35C1258.02 72.9443 1259.98 76.1265 1258.51 79.3088L1181.66 244.294C1180.93 245.763 1179.46 246.986 1177.5 246.986H1175.06C1173.1 246.986 1171.63 245.763 1170.9 244.294L1094.54 79.3088Z" fill="#6D777F" fill-opacity="0.1"/>
</svg>
