<svg width="137" height="34" viewBox="0 0 137 34" fill="none" xmlns="http://www.w3.org/2000/svg">
<path d="M10.9299 33.8425L3.92602 26.9375C3.71297 26.7274 3.71297 26.4124 3.92602 26.2023L5.94996 24.207C6.163 23.9969 6.48257 23.9969 6.69562 24.207L10.9565 28.4077C11.1696 28.6178 11.4892 28.6178 11.7022 28.4077L15.9631 24.207C16.1762 23.9969 16.4957 23.9969 16.7088 24.207L18.7327 26.2023C18.9458 26.4124 18.9458 26.7274 18.7327 26.9375L11.7288 33.8425C11.4625 34.0525 11.1163 34.0525 10.9299 33.8425Z" fill="white"/>
<path d="M5.92335 9.76679L3.89941 7.77143C3.68636 7.56139 3.68636 7.24633 3.89941 7.03629L10.9299 0.157529C11.143 -0.0525096 11.4625 -0.0525096 11.6756 0.157529L18.6795 7.06255C18.8925 7.27259 18.8925 7.58764 18.6795 7.79768L16.6555 9.79305C16.4425 10.0031 16.1229 10.0031 15.9099 9.79305L11.649 5.59228C11.4359 5.38224 11.1163 5.38224 10.9033 5.59228L6.64238 9.79305C6.45596 9.97683 6.13639 9.97683 5.92335 9.76679Z" fill="white"/>
<path d="M20.6501 16.6456C20.4637 16.4618 20.1708 16.4355 19.9844 16.5931C19.3186 17.0919 18.3066 17.6695 17.1082 17.722C15.6702 17.8008 14.2055 17.1181 12.7408 15.7266C10.5837 13.6788 8.21358 12.6811 5.73692 12.7598C3.31352 12.8386 1.34284 13.9676 0.197721 14.834C-0.0419555 15.0178 -0.0685863 15.3853 0.14446 15.5954L1.95535 17.3544C2.11514 17.5645 2.38144 17.5907 2.59449 17.4332C3.34015 16.9081 4.5119 16.3042 5.87007 16.2517C7.36139 16.2255 8.82609 16.8819 10.2641 18.2471C12.3413 20.2162 14.5783 21.2139 16.8686 21.2139C17.0017 21.2139 17.1615 21.2139 17.2947 21.2139C19.5583 21.0826 21.3159 20.0062 22.3811 19.1398C22.6208 18.956 22.6208 18.5884 22.4078 18.3784L20.6501 16.6456Z" fill="white"/>
<path d="M31.5421 8.03396C31.5421 7.77141 31.7818 7.56137 32.0481 7.56137H32.7139L43.3662 17.6695H43.3928V8.32276C43.3928 8.06021 43.6058 7.82392 43.8988 7.82392H47.0945C47.3608 7.82392 47.6005 8.06021 47.6005 8.32276V26.0185C47.6005 26.2811 47.3608 26.4911 47.0945 26.4911H46.6684C46.5885 26.4911 46.3754 26.4123 46.3222 26.3598L35.7764 15.9104H35.7498V25.7297C35.7498 25.9923 35.5367 26.2286 35.2438 26.2286H32.0747C31.8084 26.2286 31.5687 25.9923 31.5687 25.7297L31.5421 8.03396Z" fill="white"/>
<path d="M49.6777 8.32279C49.6777 8.06024 49.8907 7.82394 50.1837 7.82394H58.1463C61.3419 7.82394 63.9518 10.3707 63.9518 13.495C63.9518 15.9104 62.3273 17.8533 60.0104 18.7722L63.6854 25.4672C63.8719 25.8085 63.6854 26.2286 63.2327 26.2286H59.6908C59.4778 26.2286 59.318 26.0973 59.2647 25.9923L55.7229 19.0348H53.8853V25.7297C53.8853 25.9923 53.6457 26.2286 53.3793 26.2286H50.2103C49.9174 26.2286 49.7043 25.9923 49.7043 25.7297V8.32279H49.6777ZM57.8267 15.6741C58.9185 15.6741 59.8506 14.6765 59.8506 13.5738C59.8506 12.471 58.9185 11.5784 57.8267 11.5784H53.8853V15.6741H57.8267Z" fill="white"/>
<path d="M63.499 8.50657C63.3393 8.16526 63.5523 7.82394 63.9518 7.82394H67.4937C67.7067 7.82394 67.8931 7.98147 67.9464 8.11275L72.3405 17.722H72.5002L76.8943 8.11275C76.9476 7.98147 77.134 7.82394 77.347 7.82394H80.8889C81.2884 7.82394 81.5014 8.16526 81.3416 8.50657L72.9796 26.2023C72.8997 26.3599 72.7399 26.4911 72.5269 26.4911H72.2606C72.0475 26.4911 71.8877 26.3599 71.8078 26.2023L63.499 8.50657Z" fill="white"/>
<path d="M88.7982 8.32279C88.7982 8.06024 89.0113 7.82394 89.2776 7.82394H95.7755C100.915 7.82394 105.149 11.946 105.149 17.0131C105.149 22.1066 100.942 26.2548 95.7755 26.2548H89.2776C89.0113 26.2548 88.7982 26.0185 88.7982 25.756V8.32279ZM95.5092 22.3429C98.5184 22.3429 100.702 20.0062 100.702 17.0131C100.702 14.0463 98.5184 11.7097 95.5092 11.7097H92.9526V22.3691H95.5092V22.3429Z" fill="white"/>
<path d="M106.188 8.32279C106.188 8.06024 106.401 7.82394 106.694 7.82394H117.746C118.039 7.82394 118.252 8.06024 118.252 8.32279V11.1846C118.252 11.4471 118.039 11.6834 117.746 11.6834H110.369V14.939H116.441C116.707 14.939 116.947 15.1753 116.947 15.4378V18.2996C116.947 18.5884 116.707 18.7985 116.441 18.7985H110.369V22.3429H117.746C118.039 22.3429 118.252 22.5792 118.252 22.8417V25.7297C118.252 25.9923 118.039 26.2286 117.746 26.2286H106.694C106.401 26.2286 106.188 25.9923 106.188 25.7297V8.32279Z" fill="white"/>
<path d="M119.104 8.50657C118.944 8.16526 119.157 7.82394 119.557 7.82394H123.099C123.312 7.82394 123.498 7.98147 123.551 8.11275L127.945 17.722H128.105L132.499 8.11275C132.553 7.98147 132.739 7.82394 132.952 7.82394H136.494C136.893 7.82394 137.106 8.16526 136.947 8.50657L128.585 26.2023C128.505 26.3599 128.345 26.4911 128.132 26.4911H127.866C127.652 26.4911 127.493 26.3599 127.413 26.2023L119.104 8.50657Z" fill="white"/>
</svg>
