<svg width="322" height="93" viewBox="0 0 322 93" fill="none" xmlns="http://www.w3.org/2000/svg">
<path d="M-4.96 2.2H14.6L48.92 58L49.16 57.76L48.2 2.2H69.92V91H50.24L16.4 37L16.16 37.12L16.76 91H-4.96V2.2ZM84.8947 2.2H134.215V22.12H106.615V35.92H133.375V55.84H106.615V71.08H134.215V91H84.8947V2.2ZM164.013 2.2L175.893 59.92H176.133L189.213 2.2H206.613L219.453 60.16H219.693L231.813 2.2H254.733L231.213 91H211.293L197.973 33.52H197.733L184.413 91H163.893L140.973 2.2H164.013ZM298.467 28.12C298.307 27.4 298.107 26.56 297.867 25.6C297.707 24.56 297.347 23.6 296.787 22.72C296.227 21.76 295.427 21 294.387 20.44C293.427 19.8 292.067 19.48 290.307 19.48C288.307 19.48 286.507 20.12 284.907 21.4C283.307 22.68 282.507 24.36 282.507 26.44C282.507 27.8 282.707 28.92 283.107 29.8C283.507 30.68 284.347 31.6 285.627 32.56C286.987 33.44 288.867 34.48 291.267 35.68C293.667 36.8 296.867 38.24 300.867 40C305.027 41.84 308.427 43.72 311.067 45.64C313.787 47.56 315.907 49.56 317.427 51.64C319.027 53.72 320.107 55.92 320.667 58.24C321.307 60.48 321.627 62.88 321.627 65.44C321.627 68.72 321.107 72 320.067 75.28C319.027 78.48 317.307 81.36 314.907 83.92C312.507 86.48 309.307 88.6 305.307 90.28C301.387 91.88 296.507 92.68 290.667 92.68C284.267 92.68 278.987 91.76 274.827 89.92C270.667 88 267.387 85.64 264.987 82.84C262.587 80.04 260.907 77 259.947 73.72C259.067 70.44 258.627 67.36 258.627 64.48V61.6H281.187C281.187 64.16 281.507 66.24 282.147 67.84C282.867 69.44 283.707 70.68 284.667 71.56C285.707 72.44 286.747 73.04 287.787 73.36C288.827 73.6 289.707 73.72 290.427 73.72C293.147 73.72 295.267 72.84 296.787 71.08C298.307 69.24 299.067 67.28 299.067 65.2C299.067 63.76 298.787 62.52 298.227 61.48C297.747 60.44 296.827 59.48 295.467 58.6C294.187 57.72 292.427 56.8 290.187 55.84C287.947 54.8 285.107 53.56 281.667 52.12C280.067 51.48 278.027 50.6 275.547 49.48C273.147 48.28 270.787 46.72 268.467 44.8C266.147 42.8 264.147 40.32 262.467 37.36C260.787 34.4 259.947 30.84 259.947 26.68C259.947 22.52 260.867 18.84 262.707 15.64C264.547 12.36 266.947 9.6 269.907 7.36C272.867 5.12 276.187 3.44 279.867 2.32C283.547 1.12 287.267 0.519999 291.027 0.519999C295.427 0.519999 299.787 1.36 304.107 3.04C308.507 4.63999 312.147 7.15999 315.027 10.6C316.307 12.2 317.307 13.8 318.027 15.4C318.827 16.92 319.427 18.44 319.827 19.96C320.227 21.4 320.467 22.8 320.547 24.16C320.707 25.52 320.827 26.84 320.907 28.12H298.467Z" fill="#ECECED"/>
</svg>
