<svg width="669" height="584" viewBox="0 0 669 584" fill="none" xmlns="http://www.w3.org/2000/svg">
<g opacity="0.25">
<path d="M51 584C51 584 54.5 576.5 61.5 576.5C68.5 576.5 69 581 71.5 576.5C74 572 77 568 80.5 572C84 576 103.5 577.4 114 577.2C124.5 577 145.5 572.5 154 575C162.5 577.5 185 574.4 195 577.2C205 580 213.5 584 213.5 584H194.5C194.5 584 186 580.8 178.3 581C170.6 581.2 153.3 582 148.5 581C143.7 580 136.7 579.5 133.5 580.5C130.3 581.5 112.3 584 102.5 582C92.7 580 83.5 576 78.7 578.5C73.9 581 72 581 68.2 581C64.4 581 61 584 61 584H51Z" fill="#C6E1E6"/>
<path d="M65.7002 561.7C65.7002 561.7 70.3002 562.1 71.9002 561.7C73.6002 561.2 69.7002 568.4 65.7002 561.7Z" fill="#C6E1E6"/>
<path d="M77.7998 563.8C77.7998 563.8 82.4998 554 84.8998 552.8C87.2998 551.6 88.7998 548.5 91.1998 550C93.5998 551.5 92.3998 552.9 91.6998 553.9C90.9998 554.9 88.5998 559.1 90.9998 557.6C93.3998 556 93.7998 553.8 96.7998 553.4C99.8998 553 100.7 554.6 104.1 554.2C107.5 553.8 109.9 552.4 113.1 553.6C116.3 554.8 120.5 559.4 121.9 556.7C123.3 554 124.7 551.8 127 552.1C129.3 552.4 131.2 552.3 131.2 554.5C131.2 556.7 132.2 556.6 134.4 555.1C136.6 553.6 137.8 553.3 138.6 554.3C139.4 555.3 143.4 557.2 146.4 556.8C149.4 556.4 152.6 556.5 154 556.8C155.4 557.1 159.1 557.5 157.8 557.8C156.6 558.1 154.2 558.7 151.1 558.5C148 558.3 141.9 557.3 142.2 558.9C142.5 560.5 141.9 564.1 139 562.2C136.1 560.3 135 560 133.2 560.4C131.4 560.8 129.8 559.4 127.5 560.7C125.2 562 121.8 563.1 120.8 563.8C119.8 564.5 118.5 567.2 114.6 567.2C110.7 567.2 104.6 567.1 106.2 566.2C107.8 565.3 108.4 563.6 111.4 563.7C114.4 563.8 119.6 564.6 119.3 563.1C119 561.6 117.5 557.5 114.5 558.8C111.5 560.1 111.6 561.1 108.3 559.7C105 558.3 101.6 556.6 99.1998 558.3C96.7998 560 92.7998 562.9 94.3998 564.1C96.0998 565.3 98.2998 566.1 98.6998 567.1C99.0998 568.1 99.8998 569.1 101.8 568.7C103.7 568.3 96.3998 573.8 91.5998 569.9C87.1998 566 83.7998 563.5 77.7998 563.8Z" fill="#C6E1E6"/>
<path d="M166 555.1C166 555.1 165.1 559.2 167.4 559.7C169.7 560.2 171 559.9 173.6 560.5C176.3 561.1 179.2 564.6 182.8 563.2C186.5 561.8 188.1 560.6 185.6 560.5C183 560.5 178.1 558.9 174.7 558C171.3 557 166.8 554.1 166 555.1Z" fill="#C6E1E6"/>
<path d="M186.5 565.5C186.5 565.5 187 564.5 191.2 565.5C195.4 566.5 201.9 567.6 200.4 569.3C199 571 197.8 571.6 195.6 570.9C193.4 570.2 192.5 569.2 190.2 570.4C187.9 571.6 183.5 572.5 183.9 569.5C184.2 566.6 186.5 565.5 186.5 565.5Z" fill="#C6E1E6"/>
<path d="M213.1 568.3C213.1 568.3 212.7 570.2 214.9 570.4C217.1 570.6 219.1 571.1 222.2 571.5C225.4 571.9 232 575.4 233.8 574.3C235.6 573.1 234.2 570 232 570.4C229.8 570.8 226.6 569 224.9 568.8C223.2 568.6 222.3 568.7 219.6 568.3C216.9 567.9 213.8 566.7 213.1 568.3Z" fill="#C6E1E6"/>
<path d="M288.9 584C288.9 584 291.5 581.4 292.3 582.1C293.1 582.8 293.4 583.2 294.6 583C295.8 582.8 295.6 584 295.6 584H288.9Z" fill="#C6E1E6"/>
<path d="M312.9 566.9C312.9 566.9 312.2 563.1 314.2 560.9C316.2 558.7 317 555.6 318.3 558.2C319.6 560.9 322.1 565 319.1 568C316.2 571.1 314.6 572.6 314.9 574.3C315.2 576 315.3 578 312.8 577.7C310.3 577.4 309.5 576.9 310.9 575.1C312.3 573.3 313.5 572.4 314.3 570.8C315.1 569.1 318.6 567.6 317.5 565.8C316.4 564 315.5 563.7 312.9 566.9Z" fill="#C6E1E6"/>
<path d="M320.5 558.2C320.5 558.2 324.9 553.6 325 550.8C325.1 548 330.7 538.1 333.6 536.4C336.5 534.6 330.8 547.4 328.7 549.6C326.6 551.9 320.5 558.2 320.5 558.2Z" fill="#C6E1E6"/>
<path d="M329.7 526.7C329.7 526.7 329.3 525.5 329.2 523.8C329.1 522.1 334.7 515.2 334.4 517.2C334.2 519.2 332 524.6 329.7 526.7Z" fill="#C6E1E6"/>
<path d="M336.7 508.8C336.7 508.8 335.3 499.1 342 493C342 493.1 340.4 503 336.7 508.8Z" fill="#C6E1E6"/>
<path d="M345.5 451.7C345.5 451.7 345.9 450.4 345.9 447.6C345.9 444.8 347.1 441.1 349.4 439.3C351.7 437.5 352.9 435.6 352.9 434.9C352.9 434.2 360.1 437.7 355.7 440.1C351.3 442.5 348.5 442.7 349.4 443.9C350.2 445.1 353.8 448.8 350.7 450.2C347.6 451.6 345.5 451.7 345.5 451.7Z" fill="#C6E1E6"/>
<path d="M345.5 430C345.5 430 348.7 428.7 350.3 429.7C352 430.7 353.6 432.8 353.7 428.9C353.8 425 354.3 425.5 355.8 423.3C357.3 421.1 357.8 417.6 359.2 418.5C360.6 419.4 362 421.1 360.8 422.7C359.6 424.4 360 428 357.8 431.1C355.6 434.1 355.7 436 357.6 434.1C359.5 432.3 361.9 430.5 362 427.3C362.1 424.1 362.3 424 363.3 421.8C364.3 419.6 365.1 416.6 362.3 416.3C359.5 416 357.1 416.6 360 413.8C362.8 411 369.6 401.4 368.4 402.2C367.2 403 367.4 404.3 365.4 404.3C363.4 404.3 358.5 402.5 357 407.5C355.4 412.4 351.3 419.2 347.4 422C343.5 424.8 345.5 430 345.5 430Z" fill="#C6E1E6"/>
<path d="M367.8 397.9C367.8 397.9 368.2 396.2 369.6 395.8C371 395.4 373 393 373 391.7C373 390.4 374.2 397.9 373 399.3C371.8 400.7 369.6 396.2 367.8 397.9Z" fill="#C6E1E6"/>
<path d="M362 388.8C362 388.8 360.9 385 362 384.1C363.1 383.2 365.6 382.4 365.1 380.3C364.6 378.2 364.9 374.8 365.6 376.1C366.4 377.4 366.6 380.9 365.6 383C364.6 385.1 362 388.8 362 388.8Z" fill="#C6E1E6"/>
<path d="M375.4 353.4C375.4 353.4 374.6 352.7 375.4 350.2C376.2 347.6 376.6 345.8 377.8 343.3C379 340.8 378.7 337.5 379.4 339C380.1 340.5 381.2 343.5 379 347.2C376.8 350.8 375.4 353.4 375.4 353.4Z" fill="#C6E1E6"/>
<path d="M399.9 296.9C399.9 296.9 398.6 293.8 400.5 289C402.4 284.2 405.3 284.8 406.9 277.2C408.6 269.6 411.3 266.2 408.6 263.4C405.8 260.6 403.8 260 403.8 260L407.7 255.5C407.7 255.5 410.2 253.4 411.8 255.5C413.4 257.6 409.1 264.3 413 262.4C416.8 260.6 420.8 258.6 423.1 253.7C425.3 248.8 425.9 247.6 427.5 244.8C429.1 242 433.2 239.1 430.4 243.9C427.6 248.7 426.1 252.2 428.4 250.7C430.7 249.1 429.2 245.9 432.6 244.5C436 243.1 440.4 240.7 443.5 237.3C446.7 233.9 450 230.5 450.5 232.1C451 233.7 453.3 236.5 453.7 234.3C454.1 232.1 455 228.4 453.2 229.3C451.4 230.2 449.5 231.3 451 228.5C452.5 225.7 456.8 223.9 459.2 226.3C461.6 228.6 471.4 233 475.5 232.1C479.6 231.2 482.4 230.8 484.7 231.9C487 233 496.5 238.8 500.3 238.8C504.1 238.8 505.4 238.6 506.5 240.6C507.6 242.6 509 243.9 511.9 243.7C514.8 243.5 512.3 248.5 515.5 246.7C518.7 244.9 520.7 243.1 523.4 244.7C526.1 246.3 533.6 251.9 526.7 251.7C519.8 251.5 516 248.6 510.8 248.7C505.6 248.8 501.4 249.5 501.4 249.5L498.7 248C498.7 248 501 244.5 498.3 244.3C495.5 244.1 492 236.9 490.1 239.1C488.2 241.3 486.7 243.3 488.1 243.9C489.5 244.5 491.3 247 491.3 247H483C483 247 487.8 242.6 485.6 240.2C483.4 237.8 482.6 236.8 479.5 237.7C476.4 238.6 473.6 240.8 476.5 240.8C479.4 240.8 482.4 241.9 481.2 243C480 244.2 477.1 243.3 475 244.2C472.9 245.1 469.9 248 472 249.4C474 250.8 459.3 253.1 459.3 253.1C459.3 253.1 470.5 244.7 471 242C471.4 239.3 470.8 236.6 468.8 238.3C466.7 240.1 463.9 242.9 463.1 240.2C462.3 237.5 464.8 236.3 461.9 235.4C459.1 234.5 459 235.5 458 237.3C457 239.1 457.7 239.6 455.1 239.6C452.5 239.6 451.3 238.3 449.5 240.6C447.7 242.9 448.6 244 446.1 243.8C443.6 243.6 441.2 241.4 440.9 244.4C440.6 247.4 439.5 248.4 437.3 248.4C435.1 248.4 433.8 249.6 434.1 251.4C434.3 253.2 437.4 256 434.3 256C431.1 256 428.5 257.1 425.1 260.2C421.7 263.3 419.7 267.4 418.9 268.4C418.1 269.4 418.9 271.5 420.7 269.9C422.5 268.3 425.5 264.3 427.4 266.1C429.3 267.9 428.8 271.5 428.8 271.5L425.1 274.6C425.1 274.6 424.8 273.4 422.8 274.6C420.8 275.8 420.8 277.8 417.2 278.1C413.6 278.3 411.4 278.9 410.3 281.3C409.1 284 402.2 295.6 399.9 296.9Z" fill="#C6E1E6"/>
<path d="M515.2 227.2C515.2 227.2 515.4 229.4 513.4 229.6C511.4 229.8 509.7 228.4 508.2 229.6C506.7 230.8 504.7 233.7 501.4 231.7C498.1 229.7 499.1 228.6 493.3 228.5C487.5 228.4 483.3 229.7 481.7 228.2C480.1 226.6 480.5 226.2 482.1 225.2C483.7 224.2 482.9 224.7 480.7 224.2C478.4 223.7 473.8 221.9 476.1 219.6C478.4 217.4 479.1 217 482.1 218.1C485.1 219.2 490.8 219.1 488.2 221C485.6 222.9 482.2 224.8 487.3 224.9C492.4 225.1 493.5 223.6 497.2 224.1C501 224.7 501.1 224.5 506 225.1C510.9 225.7 515.2 227.2 515.2 227.2Z" fill="#C6E1E6"/>
<path d="M508.9 236C508.9 236 509.9 234.6 512.7 234.6C515.5 234.6 517.9 234.4 518.3 234.6C518.7 234.8 516.5 236.1 522.3 236C528.1 235.9 534.9 235.9 535.5 236.9C536.1 237.9 539.9 241.7 542.1 241.7C544.3 241.7 551.5 240.9 552.3 242.2C553.1 243.4 563.1 248 563.1 248C563.1 248 564.2 252 568.6 252C573 252 577.1 254.8 578.5 255.4C579.9 256 582.7 259.7 586.3 259.7C590 259.7 593.1 261.5 592.7 261.9C592.4 262.2 587.4 263.4 587 263.4C586.7 263.4 582.6 262.4 584 263.7C585.4 265 584 267.9 588.7 267.9C593.4 267.8 594.9 269 598.7 269C602.5 269 606.4 270.5 606.4 271.9C606.4 273.3 605.6 276.7 603.2 276.7C600.8 276.7 596.7 278.4 595 275.9C593.3 273.4 589.9 270.1 588.8 270.1C587.6 270.1 583 267.2 581.6 267.2C580.2 267.2 577.4 266 577.6 264.9C577.8 263.7 575.3 261.1 575.3 261.1C575.3 261.1 575.2 264 573.1 264.6C571 265.2 569.1 266.7 570.8 267.5C572.5 268.3 576.6 270.3 580.8 270.8C585 271.3 590 271.3 589.8 273.7C589.6 276.1 587.6 277 590.8 277.2C594 277.5 595.3 277.7 596.5 278.7C597.7 279.6 600.9 280.2 604.3 279.5C607.7 278.8 608.1 277.2 610.8 277.2C613.5 277.2 620 276.8 614.1 279C608.2 281.2 604.3 282.8 596.9 282.1C589.5 281.4 587.5 281.9 585.9 280.3C584.3 278.7 585.2 279 582.3 279.5C579.4 280 578.9 280.5 577.1 278.6C575.3 276.7 576.6 275.4 573.5 275.4C570.4 275.3 568.7 275.2 568.9 273.6C569.1 272 573 269.9 569.8 270.1C566.6 270.3 564.7 274.4 564.7 274.4C564.7 274.4 565.1 271.2 561.9 269.7C558.7 268.3 551.1 267 548.4 265.6C545.7 264.2 541.7 262 543.6 259.8C545.4 257.6 549.3 255.3 549.4 258.3C549.6 261.3 551.7 263 552.9 261.5C554.1 260 551.5 259 553 256.7C554.5 254.4 556 252.4 557.9 254.4C559.8 256.4 560.7 257.5 563.7 256.2C566.6 255 568.6 254.4 564.9 253.1C561.2 251.8 557.2 250 554.4 247.9C551.6 245.7 551.6 244.4 548.6 244.4C545.6 244.4 539.1 242.8 536.4 240.9C533.6 239 535.8 237.7 531.6 239.2C527.4 240.7 526 240.5 520.4 239.3C514.8 238.2 508.9 236 508.9 236Z" fill="#C6E1E6"/>
<path d="M529.8 246.5C529.8 246.5 532.9 245.1 534.9 246.5C536.9 247.9 538.5 250.9 536.6 250.7C534.7 250.5 533.5 252.1 532.7 250.4C531.8 248.7 529.8 246.5 529.8 246.5Z" fill="#C6E1E6"/>
<path d="M552.7 252C552.7 252 552.3 247.2 549.2 248.6C546.1 250 546.2 249.8 544.7 250.2C543.2 250.6 542.5 253.5 543.9 253.4C545.2 253.2 544 251.5 546.9 251.8C549.8 252.1 552.7 252 552.7 252Z" fill="#C6E1E6"/>
<path d="M595.6 264.6C595.6 264.6 598.2 262.8 600.4 262.9C602.6 263.1 605.2 262.9 603.9 263.7C602.7 264.5 602.9 265.4 599.9 265.4C596.9 265.4 595.6 264.6 595.6 264.6Z" fill="#C6E1E6"/>
<path d="M608.5 272.7C608.5 272.7 610.3 270.2 611.3 269.4C612.3 268.6 612.2 269.7 612.3 268C612.4 266.2 614.5 263.8 615.5 266.2C616.4 268.6 616.4 269.8 618.3 270.1C620.2 270.4 624.1 271.2 618.7 271.8C613.3 272.4 608.5 272.7 608.5 272.7Z" fill="#C6E1E6"/>
<path d="M616.8 283.4C616.8 283.4 616 278.9 618.1 280C620.3 281.1 620.9 283.3 622.4 281.2C623.9 279.1 620.2 276.2 626.4 279C632.6 281.8 639.1 282.1 642.7 282.2C646.4 282.4 649.9 285.3 650.9 282.2C651.9 279.1 652.8 276 650.9 276.5C649 277 648.1 278.4 641.8 278.6C635.5 278.8 634.6 282 634.8 278.2C635 274.4 633.7 275.9 637.1 274.5C640.5 273.1 642.8 270.7 645.5 272.7C648.2 274.7 646.1 274.5 648.3 272.7C650.5 270.9 644.5 268.9 651.6 270.9C658.8 273 666.5 275.1 660.8 275.7C655.1 276.3 652.3 274.5 654.3 278.5C656.3 282.5 655.4 283.1 659 284.2C662.6 285.3 669.5 285.7 669.5 285.7L668.7 287.5L665.9 288.7C665.9 288.7 660.7 286 656.6 287.7C652.5 289.4 649.2 292.3 647.4 290.1C645.6 287.9 646.6 288.7 645.6 286.4C644.6 284.1 645.1 282.6 643.1 285C641.1 287.4 640.6 288.8 638.2 286.8C635.8 284.8 636 286.1 633 286.2C630 286.3 626.2 286.4 622.2 284.9C618.2 283.4 616.8 283.4 616.8 283.4Z" fill="#C6E1E6"/>
<path d="M664.8 72.3C664.8 72.3 667.7 76.2 669.5 75.5C671.3 74.8 669.4 72.9 671.4 71.3C673.4 69.7 675.4 69.1 675.2 67C675 64.8 674.7 65.4 675.2 63.8C675.7 62.2 675.5 60 673.9 61.2C672.3 62.4 674.4 60.2 672.1 64.1C669.8 68 667.6 69.7 665.5 70.6C663.5 71.4 664.8 72.3 664.8 72.3Z" fill="#C6E1E6"/>
<path d="M0 584C0 584 5 582.5 7.5 580C10 577.5 16.5 570 22 570C27.5 570 29.5 568 32 565C34.5 562 40 557 47.5 557C55 557 68 552 71 547.5C74 543 87.5 534 100 536.5C112.5 539 113 539.5 120 539C127 538.5 138.5 538 142 541.5C145.5 545 165.5 543 178 549.5C190.5 556 241 560.5 247 565C253 569.5 268 574 276 573.5C284 573 292 574 296.5 566.5C301 559 311 552.5 313.5 545C316 537.5 314 512.5 320.5 501C327 489.5 328.5 471 333 466C337.5 461 337.5 446.5 337.5 439.5C337.5 432.5 351 357 357 348C363 339 384 315.5 384 307C384 298.5 389 268.5 395.5 261.5C402 254.5 412.5 242.5 413 237.5C413.5 232.5 422 224 434.5 220C447 216 462.5 211 467.5 209C472.5 207 490.5 203.5 497.5 209C504.5 214.5 530 225 535 225.5C540 226 555 232 560 235C565 238 601 250 618 252.5C635 255 669.5 266 689 249.5C708.5 233 716.5 226.6 714.5 206C714.5 206 710.5 195 700 184.5C689.5 174 670.5 146 669.5 139C668.5 132 661 111 661.5 105C662 99 662.5 90.5 660.5 84.5C658.5 78.5 658.5 64 666 52.5C673.5 41 677.5 32 685 29C692.5 26 708.6 18.5 714.8 18.5C721 18.5 728.5 12.5 734 9C739.5 5.5 758 0 768 0C778 0 807 2 815 5.5C823 9 839.5 8.5 844.5 13C849.5 17.5 865 24.5 866 29.5C867 34.5 878.5 41.5 879.5 47C880.5 52.5 890 56 890 56V65.5C890 65.5 877.5 58 872 49.5C866.5 41 853.5 27 847.5 26C841.5 25 822 15 809.5 13.5C797 12 772.5 8.5 762 10C751.5 11.5 742.5 18.5 734 19.5C725.5 20.5 719 30 709 32C699 34 684 41.5 680 47C676 52.5 665 68.5 665.5 78C666 87.5 668.5 103.5 668.5 107.5C668.5 111.5 678 141 682 147.5C686 154 711 175.5 716.5 191C722 206.5 725.5 217.5 719.5 228.5C713.5 239.5 698.5 257 677 261C655.5 265 633.5 265 616.5 261.5C599.5 258 570.5 248 557 243C543.5 238 533 227.5 522.5 229C512 230.5 495 213 490 213C485 213 425.5 227.5 422.5 234.5C419.5 241.5 409 256 403.5 264C398 272 391.5 286 391.5 295C391.5 304 388.5 320 383 327.5C377.5 335 362 352 362 361C362 370 350.5 421 346 436C341.5 451 336 469 333.5 480C331 491 321 510.5 321 520C321 529.5 317.5 553.5 314 558.5C310.5 563.5 298.5 579 288.5 579.5C278.5 580 266 578.5 253.5 574.5C241 570.5 235.5 568 227.5 568C219.5 568 208 566.5 200.5 563C193 559.5 175 554 163 553C151 552 136.5 548 132.5 546.5C128.5 545 120.5 544.5 113.5 545.5C106.5 546.5 83.5 546 77 550.5C70.5 555 63.5 557.5 54 561C44.5 564.5 35 570 27.5 574C20 578 12 584 12 584H0Z" fill="#E6E6E6"/>
<path d="M320.2 584C320.2 584 325 577.2 329.7 572.5C334.4 567.8 331.5 562.7 331.5 559.5C331.5 556.3 333.5 551.7 336.5 546.7C339.5 541.7 342.5 527.7 343 520.5C343.5 513.3 345 502.3 346.8 496.5C348.6 490.7 349.6 466.3 354.3 459.3C359 452.3 358.3 451.8 358.3 448.5C358.3 445.2 361.3 440 364.3 436.5C367.3 433 378.3 402 378.3 397.5C378.3 393 383.5 364.7 386.3 359.5C389.1 354.3 396.5 334 401.5 329C406.5 324 417 308 418.7 300.5C420.4 293 423.9 266.7 427.2 266.3C430.5 265.9 438 260.5 441 258.1C444 255.7 448 253.9 453.8 252.9C459.6 251.9 475.8 249.4 483 247.1C490.2 244.8 496.2 246.1 500.8 247.1C505.4 248.1 513.3 251.6 517.6 253.9C521.9 256.2 538.8 265.4 542.6 267.9C546.4 270.4 549.6 268.9 552.4 272.9C555.2 276.9 578.6 282.7 581.4 283.1C584.2 283.5 612.2 290.1 617.6 290.1C623 290.1 625.8 288.6 628.8 290.6C631.8 292.6 636.8 290.1 639 292.1C641.2 294.1 655.5 293.1 660.2 290.9C664.9 288.7 666.4 285.4 674 285.4C681.6 285.4 682.8 279.9 688.2 280.2C693.6 280.5 712.4 274.4 721 265.4C729.6 256.4 731.8 252.4 735 249.4C738.2 246.4 741.5 243.4 744 233.9C746.5 224.4 742.8 229.1 746.5 224.4C750.2 219.7 750 216.2 748.7 211.6C747.4 207 744.7 202.6 744.7 196.1C744.7 189.6 734.2 168.1 731.5 164.6C728.8 161.1 725.3 159.4 723 154.8C720.7 150.2 717.5 143.8 711 135.3C704.5 126.8 698.2 118 697.2 107C696.2 96 694.2 87.5 696.7 81.5C699.2 75.5 700.5 69 706 66C711.5 63 723 52 727 48.5C731 45 741.2 35.5 749.6 35.5C758 35.5 760 37 766.5 37C773 37 806.5 37.8 814.5 41.2C822.5 44.6 841.3 55 845.5 59C849.7 63 869.5 81.2 873 87C876.5 92.8 888.5 107.8 890 112.2V126.2C890 126.2 875.8 100 869 93C862.2 86 845.8 71 842.2 66.8C838.6 62.6 827 55 821 53.2C815 51.4 798.5 47.2 787 45.2C775.5 43.2 765 43 757 44.7C749 46.4 731.2 57.7 723.5 62.2C715.8 66.7 707 79.7 705.3 84.2C703.6 88.7 701.8 101.7 704.8 107.7C707.8 113.7 712.3 123.9 713.6 127.9C714.9 131.9 723.6 140.7 727.1 143.4C730.6 146.1 732.9 156.6 737.1 161.4C741.3 166.2 750.6 181.2 750.6 185.6C750.6 190 749.1 198.1 752.1 201.6C755.1 205.1 760.9 215.8 754.6 226.6C748.3 237.4 749.6 243.4 745.8 248.1C742 252.8 728.8 267.9 723.3 271.6C717.8 275.3 714.3 283.1 699.8 287.1C685.3 291.1 673 294.9 668.3 296.3C663.6 297.7 651.3 303.3 640.3 301.3C629.3 299.3 605.3 296.8 595.3 294.8C585.3 292.8 574.1 288.8 567.3 285.8C560.5 282.8 545.5 279 539.1 273.6C532.7 268.2 509.1 256.4 500.9 256.1C492.7 255.8 482.9 253.6 473.4 255.9C463.9 258.2 455.9 263.9 449.6 263.9C443.3 263.9 436.1 268.7 434.8 271.7C433.5 274.7 430.6 284.5 428.8 290.5C427 296.5 420.8 312.5 417.3 318.3C413.8 324.1 409.1 329.1 406.3 334.5C403.5 339.9 396.7 348.8 395.9 354C395.1 359.2 393.1 353.8 391.7 364.5C390.4 375.2 387.5 389.2 386.4 393.2C385.2 397.2 387.7 401.2 383.7 407C379.7 412.8 375 416.3 374.5 421.3C374 426.3 371.2 431.3 369.5 435.6C367.8 439.9 365.2 449.4 363.8 455.4C362.5 461.4 359 476.4 357 480.2C355 484 354 491 353.3 498C352.6 505 352.1 509 351.1 515C350.1 521 345.9 531.3 345.9 536.8C345.9 542.3 344.6 544.6 342.1 550C339.6 555.3 337.6 554.3 337.8 560.8C338 567.3 337 572.3 334.8 576.3C332.6 580.3 329.3 583.8 329.3 583.8H320.2V584Z" fill="#E6E6E6"/>
</g>
</svg>
