<svg width="563" height="527" viewBox="0 0 563 527" fill="none" xmlns="http://www.w3.org/2000/svg">
<g opacity="0.25">
<path d="M-338.7 73C-338.7 73 -300 90.3 -284 89C-268 87.7 -271 88.3 -265.7 87C-260.4 85.7 -261 85.3 -255 85.7C-249 86 -235.3 84.7 -227.3 83C-219.3 81.3 -214.3 82.7 -209 82.7C-203.7 82.7 -194.7 81 -186.7 77.7C-178.7 74.4 -166 68.7 -155 69.4C-144 70.1 -125 69.7 -112.3 67.7C-99.6 65.7 -77 63 -64.6 65C-52.3 67 -36.3 66 -29.9 69C-23.6 72 -18.9 74.7 -14.6 75C-10.3 75.3 -6.60001 76 -1.30002 82C3.99997 88 28.7 113.7 31.7 124.3C34.7 134.9 36 146.6 39 152.6C42 158.6 50 181.6 49 190.3C48 199 50 215.3 57 227.3C64 239.3 83.3 265.3 86 267.6C88.7 269.9 93 276.6 98 279.9C103 283.2 124 305.2 132.3 322.9C140.6 340.6 149.3 360.9 150.3 367.2C151.3 373.5 161.6 403.9 162.3 412.9C163 421.9 169 439.9 171 445.9C173 451.9 175.3 465.2 182.3 474.2C189.3 483.2 202.3 506.9 209.3 508.2C216.3 509.5 222.6 512.5 227.3 516.5C232 520.5 240.3 525.9 242.3 525.9H264.6C264.6 525.9 245.6 520.2 241.9 517.2C238.2 514.2 228.9 504.5 220.9 502.5C212.9 500.5 192.9 479.8 186.9 466.5C180.9 453.2 174.9 432.8 175.2 427.8C175.5 422.8 169.9 405.5 167.9 398.5C165.9 391.5 157.2 366.8 157.2 362.5C157.2 358.2 146.2 330.8 142.2 324.2C138.2 317.5 120.5 283.5 109.2 276.5C97.9 269.5 84.5 252.2 81.5 249.2C78.5 246.2 57.8 217.9 57.8 212.2C57.8 206.5 62.1 184.9 58.8 179.9C55.5 174.9 48.1 159.2 47.1 154.2C46.1 149.2 34.4 117.5 28.8 109.5C23.1 101.5 13.1 89.5 12.8 85.5C12.5 81.5 -5.20001 65.1 -8.90002 64.1C-12.6 63.1 -24.2 58.8 -30.9 57.8C-37.6 56.8 -55.2 49.1 -60.9 52.5C-66.6 55.8 -81.6 56.2 -87.6 56.2C-93.6 56.2 -116.9 58.2 -120.9 59.5C-124.9 60.8 -150.6 60.5 -154.6 59.8C-158.6 59.1 -173.9 61.5 -177.3 62.8C-180.6 64.1 -189 63.1 -194.6 67.8C-200.2 72.5 -217.9 74.1 -223.6 74.1C-229.3 74.1 -263.9 80.8 -273.3 78.8C-282.7 76.8 -315 74.8 -321.3 71.1C-327.6 67.4 -337.5 66.1 -339 62.4V73H-338.7Z" fill="#E6E6E6"/>
<path d="M-338.7 9.7C-338.7 9.7 -334.3 15.7 -333 18.4C-331.7 21.1 -325 29.7 -316 33.7C-307 37.7 -289.7 44.7 -286 42.4C-282.3 40.1 -272.3 42.7 -263.3 42.9C-254.3 43.1 -238.6 44.4 -228 42.9C-217.4 41.4 -196.7 43.4 -191 43.6C-185.3 43.8 -174 41.4 -164.3 38.4C-154.6 35.4 -131 28.4 -119 30.1C-107 31.8 -81.7 30.1 -78.3 28.4C-75 26.7 -62.3 21.2 -56.3 26.7C-50.3 32.2 -28 41.4 -22.3 41.4C-16.5999 41.4 -3.59995 43.4 -0.599945 46.1C2.40005 48.8 25.1 60.4 27.7 66.1C30.3 71.8 39.7 84.4 42.7 89.1C45.7 93.8 57.4001 113.8 57.0001 118.8C56.7001 123.8 62.7 131.8 63.7 136.1C64.7 140.4 69.0001 153.1 69.0001 156.4C69.0001 159.7 68.0001 156.7 71.0001 163.1C74.0001 169.5 76.0001 175.4 76.0001 183.4C76.0001 191.4 81.0001 209.4 84.3 214.1C87.6 218.8 117 257.4 125.3 267.4C133.6 277.4 171.3 332.4 172 340.1C172.7 347.8 183.3 375.1 184.3 379.4C185.3 383.7 196.6 412.7 200.6 420.1C204.6 427.5 217.3 446.1 217.9 451.8C218.6 457.5 221.2 469.1 226.2 472.1C231.2 475.1 238.2 484.8 243.9 487.8C249.6 490.8 280.2 507.8 283.2 510.5C286.2 513.2 291.9 516.8 298.5 516.2C305.2 515.5 327.8 513.4 336.2 516.3C344.6 519.2 357.5 519 361.5 516.3C365.5 513.6 377.5 502.9 389.5 507.2C401.5 511.5 425.2 512.5 430.5 511.9C435.8 511.2 479.8 509.6 486.2 512.6C492.5 515.6 507.2 515.9 510.2 515.6C513.2 515.3 541.5 517.4 551.5 526.3H562.8C562.8 526.3 545.5 508.2 528.8 507.9C512.1 507.6 498.8 510.6 493.1 508.6C487.4 506.6 477.1 503.3 469.4 504.6C461.7 505.9 434.4 500.3 424.7 502.3C415 504.3 402 503 397 502.3C392 501.6 377 499 367.7 504C358.4 509 349.4 512 342 510.3C334.6 508.6 304.3 511.3 301.7 510.6C299 509.9 285.7 507.6 279.4 501.9C273.1 496.2 252.7 479.6 247.4 479.2C242.1 478.9 234.7 468.9 234.4 466.9C234.1 464.9 229.1 456.2 226.7 449.6C224.4 442.9 212.4 426.6 209 418.9C205.7 411.2 191.7 385.6 191 375.9C190.3 366.2 186.7 351.6 183.7 342.6C180.7 333.6 158.7 296.6 155.4 292.6C152.1 288.6 133.1 261.6 125.4 253.3C117.7 245 105.1 232.3 104.1 229C103.1 225.7 98.4001 217.7 95.4001 214.7C92.4001 211.7 83.1 188.7 83.1 182C83.1 175.3 72.1001 135.7 65.4001 118.3C58.7 100.9 50.1 85.3 46.1 80.6C42.1 75.9 35.1 66.6 34.1 62.6C33.1 58.6 18.7 41 8.70004 39C-1.29996 37 -36.9999 29.7 -42.5999 26.3C-48.3 23 -56.9 13.3 -70.9 16.3C-84.9 19.3 -97.8999 19.3 -101.9 19.6C-105.9 19.9 -108.9 21.6 -112.9 20.6C-116.9 19.6 -134.2 19.6 -139.9 21.9C-145.6 24.2 -150.9 27.9 -155.9 26.9C-160.9 25.9 -165.9 28.2 -168.2 29.9C-170.5 31.6 -173.2 34.6 -176.5 34.6C-179.8 34.6 -212.8 30.9 -218.5 33.9C-224.2 36.9 -234.8 37.6 -240.5 36.2C-246.2 34.9 -275.2 32.9 -282.8 33.2C-290.5 33.5 -310.1 23.9 -316.5 21.2C-322.9 18.5 -328.2 15.5 -328.8 12.2C-329.4 8.9 -335.4 1 -338.7 0V9.7Z" fill="#E6E6E6"/>
<path d="M-42.4001 48.5C-42.4001 48.5 -45.1001 44.7 -41.9001 44.8C-38.7001 45 -39.2001 45.3 -37.8001 46.6C-36.4001 47.9 -35.0001 46.6 -33.8001 48.4C-32.6001 50.2 -31.8001 51.8 -30.1001 50.2C-28.4001 48.5 -26.0001 48.9 -24.3001 50.9C-22.5001 52.9 -18.2001 55.9 -20.0001 51.8C-21.8001 47.7 -24.8001 42.8 -22.9001 43.5C-21.0001 44.2 -18.1001 45.3 -16.1001 44.8C-14.0001 44.4 -9.20008 45.2 -9.40008 46.6C-9.60008 47.9 -9.30006 50.7 -6.60006 51.8C-3.90006 53 -3.80005 52.5 -3.00005 54.5C-2.20005 56.5 2.79993 57.3 0.199928 54.9C-2.40007 52.5 -4.40006 51.5 -6.60006 48.5C-8.80006 45.5 -10.8001 41.8 -11.2001 41.4C-11.6001 41 -0.900078 44.7 -0.900078 44.7C-0.900078 44.7 1.79993 52.3 7.29993 50.1C12.7999 47.9 19.9999 57 19.9999 57C19.9999 57 16.9999 58.6 17.2999 60.6C17.5999 62.6 21.0999 69.7 18.1999 67.2C15.2999 64.7 7.99995 56.8 7.99995 58.2C7.99995 59.6 8.09993 62.6 10.6999 64.1C13.2999 65.6 18.2999 69.2 14.8999 70.2C11.4999 71.2 6.29992 70.8 4.09992 68.1C1.89992 65.4 -2.30006 59.8 -5.10006 57.9C-7.90006 56.1 -12.5001 52 -16.1001 53.7C-19.7001 55.4 -24.0001 59.3 -27.1001 57.9C-30.2001 56.5 -31.0001 54.9 -32.4001 54.9C-33.8001 54.9 -36.2001 53.2 -37.6001 51.8C-39.0001 50.4 -42.4001 48.5 -42.4001 48.5Z" fill="#BFE3DF"/>
<path d="M21.2999 70.7C21.2999 70.7 16.8999 73 19.1999 74.7C21.4999 76.4 25.6999 79.9 24.1999 81.4C22.6999 82.8 21.1999 83.6 21.4999 86.1C21.7999 88.5 25.2999 92.2 28.5999 95.9C31.7999 99.6 38.3999 103.6 37.8999 101.7C37.3999 99.9 36.5999 97.5 35.0999 95.2C33.5999 92.9 33.5999 92.2 33.4999 89.7C33.3999 87.2 32.8999 83.8 29.9999 80.9C27.0999 78.1 24.3999 74.9 25.3999 73.2C26.3999 71.5 27.7999 68 26.0999 68.3C24.3999 68.6 21.2999 70.7 21.2999 70.7Z" fill="#BFE3DF"/>
<path d="M59.2 122.6C59.2 122.6 56.8 125.6 57.6 127.5C58.4 129.4 62.4 130.7 60.8 129.4C59.2 128.1 59.7001 126.8 59.9001 126.3C60.0001 125.7 59.2 122.6 59.2 122.6Z" fill="#BFE3DF"/>
<path d="M52.7001 140.3C52.7001 140.3 51.4001 137.6 50.1001 139.1C48.9001 140.5 49.2001 142 50.1001 142.2C51.0001 142.4 54.2001 146.8 54.7001 148.1C55.2001 149.4 57.2001 150.6 56.3001 148.5C55.4001 146.4 52.7001 140.3 52.7001 140.3Z" fill="#BFE3DF"/>
<path d="M60.3001 158C60.3001 158 60.2001 160.3 62.0001 160.3C63.8001 160.3 65.2001 160.8 66.0001 161.2C66.8001 161.6 68.2001 158.5 66.0001 158.9C63.8001 159.2 62.7001 158.8 61.5001 158.4C60.3001 158 60.3001 158 60.3001 158Z" fill="#BFE3DF"/>
<path d="M165.1 328.7C162.7 326.1 162.3 319.7 162.3 318.8C162.3 317.9 158.3 313.7 158.3 313.7C158.3 313.7 155.2 314.5 153.2 307.2C151.2 299.9 147.3 296.7 147.3 296.7C147.3 296.7 144.4 297.3 142.5 294.1C140.6 290.9 136.4 286 135.2 284.8C134 283.6 126.6 275.5 125.2 272.3C123.8 269.1 120.2 262.6 115.1 257.9C110 253.2 102.2 245.5 99.3001 241.7C96.5001 237.9 89.3001 229.2 88.7001 226.5C88.1001 223.7 88.1001 221.3 85.6001 221.4C83.1001 221.5 78.8001 215.1 77.0001 211.9C75.2001 208.7 70.2001 197.1 69.7001 193.9C69.2001 190.7 67.3001 186 70.1001 188.1C72.9001 190.2 78.2001 195.3 78.2001 193.9C78.2001 192.5 75.9001 181.1 75.9001 181.1C75.9001 181.1 74.2001 184.2 73.2001 182.3C72.2001 180.5 64.9001 164.6 62.2001 164.1C59.5001 163.5 58.6001 164.2 59.0001 165.7C59.3001 167.2 59.3001 167.8 59.3001 169.4C59.3001 171 61.5001 171.7 63.0001 172.6C64.5001 173.4 65.9001 175.4 65.9001 176.4C65.9001 177.5 71.5001 180.7 68.3001 180.6C65.1001 180.5 59.5001 181.4 58.9001 182.9C58.3001 184.5 56.9001 194.8 58.4001 194.4C59.9001 194 60.2001 189.6 62.1001 190C63.9001 190.3 65.3001 191.7 65.0001 193.6C64.7001 195.5 65.6001 202 66.8001 204.4C68.0001 206.8 75.2001 214.3 74.2001 217C73.2001 219.7 73.3001 221.8 72.1001 222.3C70.9001 222.8 69.2001 224.4 71.6001 226.4C74.0001 228.4 79.1001 233.6 79.4001 235.7C79.6001 237.8 81.6001 245.1 83.3001 246.2C85.0001 247.3 96.1001 258.5 97.5001 260.4C98.8001 262.2 108.6 274.5 108.6 272.1C108.6 269.7 110.5 266.3 111.8 267.6C113.1 268.9 114.8 269.8 116 269.9C117.2 270 120.7 271.4 120.3 273.2C120 275 121.6 278 122.9 278C124.1 278.1 125.4 279.1 126.3 280.7C127.2 282.3 130.7 285.5 130.7 287.9C130.7 290.3 133.4 294.5 134 295C134.7 295.5 135.6 296.2 135.4 298C135.2 299.8 135.3 303.7 137.1 304.2C138.9 304.7 141.3 307 141 305.5C140.7 304 143.2 302.4 144.2 303.4C145.2 304.4 147.3 307 145.4 306.7C143.5 306.4 141 306.3 141 307.1C141 307.9 140.4 310.9 137.1 311.2C133.8 311.4 138.1 319.2 138.1 319.2C138.1 319.2 148.7 325.4 150.6 328.4C152.5 331.3 156.2 338 157.8 337.8C159.4 337.6 159.9 335.7 157.8 333.4C155.7 331.1 148.4 315.6 148.7 314C149 312.3 150.9 311.4 151.5 313.8C152.2 316.2 156 323.5 157.6 325C159.2 326.5 164.2 330.7 164.2 334.8C164.2 338.9 165.2 342 165.2 342L169.1 335.8C169 335.7 167.5 331.2 165.1 328.7ZM89.5001 238.3C89.1001 237.1 79.1001 229.4 77.4001 228.8C75.7001 228.2 76.9001 225.7 77.4001 226.3C77.9001 226.9 79.2001 226.1 82.1001 226.3C85.0001 226.5 88.0001 229.8 88.0001 229.8C91.5001 233.5 89.9001 239.6 89.5001 238.3Z" fill="#BFE3DF"/>
<path d="M171 395.8C171 395.8 170 396.6 171 398.7C172 400.8 172.4 400.9 172.4 402.9C172.4 404.9 174 406.9 175.5 405.5C177 404.1 177.4 403.3 176 400.9C174.7 398.4 171 395.8 171 395.8Z" fill="#BFE3DF"/>
<path d="M188.7 400C188.7 400 187.1 395.8 186.1 397.4C185.1 399 184.2 401.5 185.1 402.5C186 403.5 186 405.4 184.7 405.4C183.4 405.4 182.8 407.2 183.8 408.5C184.8 409.8 183.8 411.6 184.8 412C185.8 412.4 187.6 412 189.3 412C191 412 194.8 411.9 194.2 411C193.6 410.1 189.7 410 189.7 407.8C189.7 405.6 188.7 400 188.7 400Z" fill="#BFE3DF"/>
<path d="M195.9 428.5C195.9 428.5 194.3 425.5 194.2 423.4C194.1 421.3 194.8 417.8 192.3 416.4C189.8 415 188.1 416 188.1 418.8C188.1 421.6 187.4 423.2 188.8 424.4C190.2 425.6 195.9 428.5 195.9 428.5Z" fill="#BFE3DF"/>
<path d="M194.2 431.4C194.2 431.4 200.3 438.3 200.3 442C200.3 445.7 200.2 436.8 204.9 439.4C209.6 442 203.3 433.2 194.2 431.4Z" fill="#BFE3DF"/>
<path d="M209.4 450C209.4 450 208.5 445 206.5 444.9C204.5 444.8 202.6 446.1 204.5 447.5C206.4 448.9 209.4 450 209.4 450Z" fill="#BFE3DF"/>
<path d="M194.2 466.1C194.2 466.1 196.5 466.1 194.2 462.3C191.9 458.5 191.5 456.5 189.5 452.1C187.5 447.7 185.1 440 183.3 439.9C181.5 439.8 178.9 439.3 181.3 443C183.7 446.7 185.5 450.6 186.8 453.8C188.1 457 190.2 458.4 190.6 460.6C191 462.8 194.2 466.1 194.2 466.1Z" fill="#BFE3DF"/>
<path d="M206.5 465C206.5 465 205.7 466 206.5 467.8C207.3 469.6 208.9 472 210.9 472C212.9 472 214.4 470.9 213 470C211.6 469.1 206.5 465 206.5 465Z" fill="#BFE3DF"/>
<path d="M222.4 487.2C222.4 487.2 222.5 479.4 219.8 477.6C217.1 475.8 212.6 476.2 212.6 477.6C212.6 479 213.5 481 216 481.8C218.5 482.6 222.4 485.2 222.4 487.2Z" fill="#BFE3DF"/>
<path d="M203.8 478.5C203.8 478.5 207.8 484.3 207.9 486.5C208 488.7 210 492.4 211.5 491.3C213 490.2 215 489.5 215.1 490.4C215.2 491.3 219.2 493.3 219 490.8C218.8 488.3 220.3 485.7 217.4 485.9C214.5 486.1 211.3 486.7 210.5 484.7C209.7 482.7 207.5 477.9 203.8 478.5Z" fill="#BFE3DF"/>
<path d="M250.3 509C250.3 509 260.5 510.9 261.5 512C262.5 513.1 252.2 516.1 250.3 509Z" fill="#BFE3DF"/>
<path d="M275.9 520.4C275.9 520.4 270.7 509.3 268.3 509C265.9 508.7 265.7 509.2 265.9 510.4C266.1 511.6 266.1 512.3 265.8 513.6C265.5 514.9 266.1 513.3 268.3 514.7C270.5 516.1 275.9 520.4 275.9 520.4Z" fill="#BFE3DF"/>
<path d="M325.7 526.1C325.7 526.1 331.5 522 332.2 523.4C332.9 524.8 333.3 526.1 333.3 526.1H325.7Z" fill="#BFE3DF"/>
<path d="M345 526.1H337.3C337.3 526.1 335.1 523.3 337.3 523.8C339.5 524.3 340.2 525 341.5 524.6C342.9 524.2 345 526.1 345 526.1Z" fill="#BFE3DF"/>
<path d="M382.7 511.1C382.7 511.1 385.6 511 387.7 512.6C389.8 514.2 393.1 516.4 394.2 515C395.3 513.6 394.7 511 392.6 511.1C390.5 511.2 390.7 510.9 388.8 510.5C386.9 510.1 382.7 511.1 382.7 511.1Z" fill="#BFE3DF"/>
<path d="M378 517.2C378 517.2 380.5 514.2 379 514C377.5 513.8 377.1 512 373.5 515.6C369.9 519.2 366.7 522.9 367.9 523.7C369.1 524.5 368.9 526.1 370.4 526.1C371.9 526.1 379.5 526.1 379.5 526.1C379.5 526.1 381.4 523.7 382.6 524.9C383.8 526.1 384.8 526.1 384.8 526.1H390C390 526.1 391.4 523.7 393.5 524.6C395.6 525.5 397.6 526.1 397.6 526.1H402.8C402.8 526.1 403.4 522 405.6 523.1C407.8 524.2 410.5 523.5 408.1 521.8C405.7 520.1 405.2 519.6 404.9 517.6C404.6 515.6 404 514.2 402.5 514.5C401 514.8 400.7 515.9 400 518C399.3 520.1 397.1 520.2 396.2 519.8C395.3 519.5 393.2 518.5 390.8 519.8C388.4 521.1 387.3 522 385.9 520.8C384.5 519.6 381.9 519.2 379.9 520.8C377.9 522.4 375.8 523 376.3 521.3C376.8 519.6 378 517.2 378 517.2Z" fill="#BFE3DF"/>
<path d="M417 516.4C417 516.4 423 517.3 425.6 516.4C428.2 515.5 420.7 511.6 417 516.4Z" fill="#BFE3DF"/>
<path d="M419.4 526.1C419.4 526.1 423.4 523.2 426.8 523.7C430.2 524.2 431.6 525.5 431.6 525.5L428.4 526.4L419.4 526.1Z" fill="#BFE3DF"/>
<path d="M444.4 515.4C444.4 515.4 448.4 520.5 451.8 519.7C455.2 518.9 459.7 519.2 464.7 519.7C469.7 520.2 472.3 521 478.1 519.8C483.9 518.6 487 518 490.6 517.9C494.2 517.9 493.1 516.8 495.4 517.9C497.6 519 493.4 515.4 487.8 515.4C482.2 515.4 473.8 514.2 470.3 515.4C466.8 516.6 461.2 517.1 457.2 516.8C453 516.4 444.4 515.4 444.4 515.4Z" fill="#BFE3DF"/>
<path d="M452.9 521.1C452.9 521.1 450.3 521.1 450.3 521.9C450.3 522.7 451.1 523.7 453.5 523.6C455.9 523.5 458.4 525.4 458.3 523.6C458.2 521.8 457.7 519.8 456.2 520.5C454.7 521.2 452.9 521.1 452.9 521.1Z" fill="#BFE3DF"/>
<path d="M482.9 523.6C482.9 523.6 484.8 526.1 486 526.1C487.2 526.1 517.9 526.3 517.9 526.3C517.9 526.3 516 525.1 515.9 522.4C515.9 522.4 514.1 523.4 513.8 524.4C513.5 525.4 510.9 525.1 507.7 524.5C504.5 523.9 499.4 522.4 495.9 523.7C492.4 524.9 488.4 525.8 482.9 523.6Z" fill="#BFE3DF"/>
<path d="M519.4 518.9C519.4 518.9 526.5 518.1 530.3 520.3C530.3 520.3 526.5 523.8 519.4 518.9Z" fill="#BFE3DF"/>
</g>
</svg>
