<svg width="345" height="480" viewBox="0 0 345 480" fill="none" xmlns="http://www.w3.org/2000/svg">
<path d="M125.286 98.5536C122.391 96.5586 117.239 96.6156 111.507 98.6676C106.007 100.663 105.196 103.627 105.196 105.28C105.196 107.617 106.759 109.555 108.265 110.353C114.865 114.001 119.902 115.027 123.26 113.488C125.518 112.462 127.023 110.239 127.66 106.933C127.833 105.964 127.949 105.052 127.949 104.197C127.949 101.689 127.081 99.7506 125.286 98.5536ZM127.37 104.254C127.37 105.052 127.255 105.907 127.081 106.876C126.444 110.011 125.054 112.063 122.97 113.032C119.786 114.457 114.923 113.431 108.496 109.897C107.165 109.156 105.775 107.446 105.775 105.337C105.775 102.829 107.859 100.663 111.738 99.2946C117.296 97.2996 122.275 97.2426 124.997 99.1236C126.56 100.15 127.37 101.917 127.37 104.254Z" fill="white" fill-opacity="0.05"/>
<path d="M269.157 289.448C269.157 284.831 264.525 279.929 256.825 276.395C251.499 273.944 248.314 274.742 246.52 275.825C244.204 277.307 243.335 279.929 243.335 281.867C243.335 282.494 243.393 283.121 243.567 283.691C246.114 292.583 249.646 297.884 253.93 299.423C256.825 300.449 260.067 299.822 263.599 297.485C267.304 295.205 269.157 292.469 269.157 289.448ZM254.162 298.967C250.051 297.485 246.693 292.298 244.146 283.577C243.972 283.064 243.914 282.494 243.914 281.867C243.914 280.043 244.667 277.649 246.809 276.281C248.43 275.255 251.441 274.514 256.536 276.851C263.946 280.271 268.52 285.059 268.52 289.391C268.52 292.184 266.725 294.749 263.252 297.029C259.951 299.309 256.883 299.936 254.162 298.967Z" fill="white" fill-opacity="0.05"/>
<path d="M166.855 256.217C166.855 250.459 163.845 244.645 157.939 239.002C150.529 231.934 143.292 229.369 136.46 231.364C126.849 234.157 118.744 246.184 114.749 263.513C113.997 266.705 113.649 269.726 113.649 272.405C113.649 281.411 117.702 285.686 121.06 287.681C126.386 290.816 132.986 290.075 136.807 288.08C156.724 277.649 166.855 266.876 166.855 256.217ZM121.349 287.282C118.107 285.344 114.228 281.24 114.228 272.519C114.228 269.84 114.576 266.876 115.328 263.741C119.265 246.64 127.255 234.784 136.634 232.048C143.234 230.11 150.297 232.618 157.534 239.515C163.324 245.044 166.276 250.688 166.276 256.274C166.276 266.705 156.26 277.25 136.518 287.681C132.813 289.562 126.502 290.303 121.349 287.282Z" fill="white" fill-opacity="0.05"/>
<path d="M153.539 254.792C153.539 251.885 152.034 248.978 149.139 246.185C145.434 242.65 141.786 241.397 138.313 242.423C133.507 243.848 129.512 249.662 127.602 258.098C127.254 259.637 127.081 261.119 127.081 262.43C127.081 266.99 129.165 269.213 130.902 270.239C133.681 271.892 136.981 271.493 139.065 270.41C148.618 265.337 153.539 260.093 153.539 254.792ZM131.712 268.757C129.744 267.617 128.702 265.394 128.702 262.43C128.702 261.233 128.876 259.865 129.223 258.44C131.018 250.745 134.665 245.216 138.776 244.019C141.613 243.164 144.681 244.304 147.923 247.382C150.529 249.833 151.802 252.341 151.802 254.792C151.802 259.409 147.228 264.197 138.197 268.928C136.576 269.726 133.912 270.068 131.712 268.757Z" fill="white" fill-opacity="0.05"/>
<path d="M116.602 87.7806C99.1174 87.7806 82.2698 98.8957 79.8961 108.13C79.5487 109.498 79.375 110.581 79.375 111.493C79.375 112.804 79.7224 113.773 80.475 114.4C81.8645 115.597 84.1224 115.369 87.0751 115.027C88.8699 114.799 90.9541 114.571 93.0963 114.685C97.9595 114.856 100.102 117.478 102.823 120.727C104.328 122.551 106.007 124.603 108.381 126.37C112.433 129.334 119.207 131.386 125.113 129.22C128.934 127.852 133.971 124.09 136.344 114.001C137.386 109.669 137.85 106.078 137.85 103C137.85 89.6616 127.66 87.7806 116.602 87.7806ZM124.476 127.681C119.149 129.619 113.07 127.738 109.365 125.059C107.165 123.463 105.602 121.582 104.096 119.758C101.375 116.452 98.77 113.26 93.0963 113.089C90.7804 112.975 88.6962 113.26 86.7856 113.431C84.4119 113.716 82.3277 113.944 81.575 113.203C81.2277 112.918 81.054 112.348 81.054 111.55C81.054 110.809 81.2277 109.783 81.5171 108.586C83.7172 99.9787 99.8122 89.5476 116.544 89.5476C130.786 89.5476 136.113 93.2526 136.113 103.171C136.113 106.135 135.65 109.555 134.665 113.773C132.871 121.183 129.455 125.914 124.476 127.681Z" fill="white" fill-opacity="0.05"/>
<path d="M234.767 257.528C234.767 253.937 229.672 249.092 224.925 246.869C220.872 244.931 217.282 244.931 214.967 246.812C213.345 248.123 212.535 249.548 212.535 251.087C212.535 252.626 213.345 254.165 214.909 255.647C218.382 258.896 225.214 261.29 230.135 261.062C234.188 260.834 234.767 258.725 234.767 257.528ZM216.067 254.45C215.198 253.652 214.214 252.455 214.214 251.144C214.214 250.118 214.793 249.149 216.009 248.18C218.44 246.242 222.146 247.496 224.172 248.465C228.746 250.631 233.03 255.02 233.03 257.585C233.03 257.984 233.03 259.238 230.019 259.409C225.619 259.58 219.193 257.357 216.067 254.45Z" fill="white" fill-opacity="0.05"/>
<path d="M147.402 77.9195C141.323 72.7325 132.928 70.7375 123.086 72.1625C95.8174 76.0955 85.9751 88.8636 78.7382 98.2116C74.2802 103.969 70.8065 108.472 64.7853 108.757C48.5745 109.384 44.5219 114.685 38.0375 133.837C32.7111 149.626 29.2374 151.279 20.9004 155.212C19.2215 156.01 17.3688 156.922 15.2267 158.005C10.8266 160.285 8.45288 162.907 8.45288 165.301C8.45288 166.327 8.91605 167.296 9.78448 168.151C12.5056 170.773 19.1057 172.084 28.3111 171.856C41.2218 171.514 49.3272 164.617 58.7063 156.58C64.7274 151.45 71.5012 145.693 80.3592 141.076C92.7489 134.692 99.8701 135.547 108.844 136.63C116.081 137.485 124.244 138.454 137.039 135.889C150.702 133.096 157.824 117.478 157.824 103.513C157.824 92.8536 154.002 83.5626 147.402 77.9195ZM136.923 135.319C124.244 137.884 116.081 136.915 108.96 136.06C100.217 135.034 92.691 134.122 80.1277 140.563C71.1538 145.18 64.3801 150.994 58.3589 156.124C49.0377 164.047 41.0481 170.887 28.369 171.229C19.3373 171.457 12.8529 170.203 10.2476 167.695C9.495 166.954 9.08973 166.099 9.08973 165.244C9.08973 163.078 11.4635 160.627 15.574 158.404C17.6583 157.321 19.5688 156.409 21.2478 155.611C29.5269 151.678 33.2901 149.911 38.6744 133.894C45.0429 115.027 49.0377 109.84 64.9011 109.213C71.1538 108.985 74.7434 104.311 79.2592 98.4397C86.3804 89.2056 96.1647 76.4945 123.202 72.6185C132.986 71.1935 140.976 73.1315 147.055 78.2615C153.539 83.7906 157.303 92.9676 157.303 103.399C157.245 117.25 150.297 132.64 136.923 135.319Z" fill="white" fill-opacity="0.05"/>
<path d="M49.4429 301.475C67.8537 300.848 88.754 300.107 99.1752 275.084C102.359 267.503 104.559 260.606 106.47 254.507C112.954 234.157 117.181 220.762 147.576 208.906C190.187 192.262 211.782 172.084 213.461 147.289C213.519 146.035 213.577 144.838 213.577 143.698C213.577 132.754 209.872 124.717 203.156 121.297C195.108 117.25 183.992 120.385 171.95 130.246C154.581 144.382 142.192 145.693 126.502 147.346C119.96 148.03 113.186 148.771 105.254 150.424C89.4487 153.787 78.6801 161.995 68.2589 169.918C60.5588 175.732 53.3219 181.261 44.4638 184.624C27.732 191.008 7.46853 189.355 0.173687 188.443V190.153C7.81591 191.065 28.1373 192.661 45.1007 186.22C54.1903 182.743 61.543 177.157 69.3011 171.229C79.6065 163.42 90.2014 155.326 105.602 152.02C113.418 150.367 120.133 149.626 126.618 148.942C141.96 147.346 155.218 145.921 172.992 131.443C184.513 122.095 194.935 118.96 202.287 122.722C209.061 126.142 212.477 135.034 211.608 147.061C209.93 171.115 188.74 190.78 146.765 207.196C115.618 219.337 111.275 233.074 104.675 253.88C102.765 259.922 100.565 266.819 97.4383 274.343C87.4224 298.34 67.1589 299.024 49.2113 299.651C43.248 299.879 37.6322 300.05 32.6531 301.076C18.1792 303.983 5.78956 311.507 0 315.497V317.606C5.09481 313.958 17.8897 305.807 33.0005 302.729C38.0374 301.874 43.5954 301.646 49.4429 301.475Z" fill="white" fill-opacity="0.05"/>
<path d="M43.0163 282.209C59.6324 280.556 76.7695 278.789 88.6381 258.668C94.1961 249.263 97.2645 240.997 99.9277 233.701C104.502 221.332 108.149 211.528 120.944 202.522C124.475 200.014 127.891 197.734 131.249 195.511C145.028 186.277 155.565 179.266 155.565 170.374C155.565 168.835 155.276 167.296 154.581 165.643C153.771 163.648 151.918 162.28 149.081 161.482C133.797 157.435 93.154 172.54 80.0117 182.914C79.2011 183.541 78.3327 184.225 77.4642 184.966C62.4693 196.936 37.632 216.772 0.173584 211.186V211.756C37.8057 217.342 62.7588 197.449 77.8116 185.422C78.6801 184.738 79.5485 184.054 80.359 183.37C93.4434 173.053 133.739 158.062 148.907 162.052C151.571 162.736 153.308 164.047 154.002 165.871C158.287 176.701 146.765 184.396 130.844 195.055C127.544 197.278 124.07 199.558 120.539 202.066C107.57 211.186 103.923 221.047 99.3488 233.473C96.6277 240.769 93.6171 249.035 88.0591 258.383C76.3063 278.276 59.285 279.986 42.8427 281.639C38.79 282.038 34.6215 282.494 30.5688 283.178C16.037 285.629 5.2684 291.044 0.23148 294.008V294.692C5.03682 291.842 15.9212 286.256 30.7425 283.748C34.7952 283.064 38.9637 282.608 43.0163 282.209Z" fill="white" fill-opacity="0.05"/>
<path d="M83.0222 223.612L83.3696 222.7C85.2801 217.684 86.2643 213.466 86.2643 210.217C86.2643 207.367 85.5117 205.315 83.9485 204.232C80.8222 202.066 75.0326 204.232 68.143 210.217C54.827 221.674 28.195 232.105 0.231445 228.799V229.369C28.3108 232.675 55.1744 222.187 68.6062 210.616C75.2063 204.973 80.8222 202.75 83.659 204.688C86.7275 206.797 86.438 213.238 82.8485 222.472L82.5011 223.384C74.9168 242.993 69.4746 257.129 41.8584 260.549C20.8423 263.114 6.25259 268.985 0.231445 271.778V272.405C6.02101 269.669 20.6107 263.684 41.9163 261.119C69.8799 257.699 75.6694 242.651 83.0222 223.612Z" fill="white" fill-opacity="0.05"/>
<path d="M126.039 188.614C133.797 184.282 141.092 180.178 141.092 175.105C141.092 174.82 141.092 174.592 141.034 174.307C140.86 173.281 140.165 172.027 137.618 171.628C127.891 170.26 98.8857 182.629 94.6593 191.464C93.9067 193.003 93.5593 194.485 93.5593 195.796C93.5593 198.19 94.7751 200.014 96.9752 201.04C100.738 202.75 107.57 201.838 114.518 195.967C117.528 193.402 121.87 191.008 126.039 188.614ZM97.6699 199.501C96.1067 198.817 95.2962 197.506 95.2962 195.853C95.2962 194.77 95.6436 193.573 96.2804 192.262C100.102 184.282 128.702 172.141 137.386 173.395C139.239 173.68 139.297 174.364 139.355 174.649C139.355 174.82 139.413 174.991 139.413 175.219C139.413 179.323 132.176 183.313 125.228 187.246C120.944 189.64 116.544 192.091 113.418 194.77C107.049 200.014 100.796 200.926 97.6699 199.501Z" fill="white" fill-opacity="0.05"/>
<path d="M208.135 312.02C208.135 311.849 208.135 311.678 208.135 311.45C207.787 304.211 190.65 286.997 183.703 285.23C181.966 284.831 181.213 285.401 180.866 285.971C180.518 286.598 180.287 287.282 180.287 288.023C180.287 291.329 183.645 295.604 187.234 300.107C189.55 303.014 191.924 306.035 193.371 308.771C196.729 315.212 201.824 317.891 204.95 317.15C206.977 316.694 208.135 314.813 208.135 312.02ZM193.892 308.543C192.445 305.75 190.071 302.729 187.697 299.822C184.166 295.376 180.866 291.215 180.866 288.08C180.866 287.396 181.04 286.826 181.329 286.313C181.676 285.743 182.429 285.572 183.529 285.857C190.419 287.567 207.208 304.439 207.556 311.564C207.671 314.414 206.687 316.181 204.777 316.637C201.882 317.264 197.077 314.699 193.892 308.543Z" fill="white" fill-opacity="0.05"/>
<path d="M202.982 142.216C203.387 140.506 202.808 139.765 202.229 139.423C201.592 139.081 200.898 138.853 200.145 138.853C196.787 138.853 192.445 142.159 187.871 145.693C184.918 147.973 181.85 150.31 179.071 151.735C172.529 155.041 169.808 160.057 170.56 163.135C171.081 165.13 172.934 166.327 175.771 166.327C175.945 166.327 176.118 166.327 176.35 166.327C183.645 165.928 201.187 149.113 202.982 142.216ZM171.139 162.964C170.445 160.114 173.108 155.383 179.36 152.248C182.197 150.823 185.266 148.486 188.219 146.149C192.734 142.672 196.961 139.423 200.145 139.423C200.84 139.423 201.419 139.594 201.94 139.879C202.519 140.221 202.692 140.962 202.403 142.045C200.666 148.828 183.529 165.358 176.292 165.7C173.455 165.871 171.602 164.845 171.139 162.964Z" fill="white" fill-opacity="0.05"/>
<path d="M76.2484 122.722C75.7273 120.727 73.8747 119.53 71.0378 119.53C70.8641 119.53 70.6904 119.53 70.4588 119.53C63.1061 119.872 45.6216 136.744 43.8268 143.584C43.4216 145.294 44.0005 146.035 44.5795 146.377C45.2163 146.719 45.9111 146.947 46.6637 146.947C50.0217 146.947 54.3638 143.641 58.9376 140.107C61.8903 137.827 64.9587 135.49 67.7377 134.065C74.222 130.816 76.9431 125.8 76.2484 122.722ZM67.4483 133.609C64.6114 135.034 61.5429 137.371 58.5902 139.708C54.0744 143.185 49.848 146.434 46.6637 146.434C45.969 146.434 45.39 146.263 44.869 145.978C44.29 145.636 44.1163 144.895 44.4058 143.812C46.1427 137.029 63.2798 120.499 70.5167 120.157C73.4115 120.043 75.2063 121.012 75.6694 122.893C76.3642 125.743 73.701 130.474 67.4483 133.609Z" fill="white" fill-opacity="0.05"/>
<path d="M295.441 363.035C280.446 364.688 266.262 366.284 261.862 361.952C260.704 360.812 260.299 359.273 260.588 357.221C262.035 346.334 274.367 336.359 286.294 326.669C297.989 317.207 310.089 307.403 312.405 296.402C316.284 277.934 306.326 271.094 282.357 254.507C276.104 250.175 268.983 245.273 260.878 239.344C230.772 217.228 235.867 198.019 241.83 175.732C243.625 169.12 245.419 162.28 246.519 154.927C249.414 135.148 245.593 118.903 236.156 110.353C228.977 103.912 218.787 102.031 206.571 104.824C180.461 110.923 178.782 104.539 175.076 90.5166C174.555 88.5786 174.034 86.5265 173.397 84.3605C170.387 74.2715 163.034 65.8354 152.613 60.5914C140.223 54.3783 123.723 52.7253 104.907 55.9174C64.4377 62.7574 46.49 88.9776 28.774 119.986C16.9054 140.734 5.44205 145.75 0.231445 146.947V148.714C5.67363 147.631 17.7738 142.729 30.2793 120.841C47.7638 90.2316 65.4798 64.3534 105.196 57.6274C123.665 54.4924 139.76 56.0314 151.802 62.1304C161.76 67.1464 168.881 75.2405 171.718 84.8735C172.355 87.0396 172.876 89.0346 173.397 90.9726C177.16 105.166 179.187 112.975 206.919 106.477C218.498 103.798 228.224 105.565 234.882 111.55C243.914 119.644 247.504 135.376 244.725 154.585C243.683 161.824 241.83 168.607 240.093 175.219C234.014 198.076 228.688 217.855 259.778 240.656C267.941 246.641 275.062 251.543 281.315 255.875C305.341 272.405 314.315 278.618 310.668 296.003C308.526 306.434 296.657 316.01 285.136 325.301C272.978 335.162 260.356 345.365 258.793 356.936C258.446 359.501 259.025 361.553 260.588 363.092C265.509 368.051 279.462 366.512 295.557 364.688C314.026 362.636 334.81 360.299 344.768 367.709V365.6C334 358.703 313.678 360.983 295.441 363.035Z" fill="white" fill-opacity="0.05"/>
<path d="M125.46 459.195C135.302 452.64 147.576 444.546 147.576 431.265C147.576 422.886 145.202 416.673 142.944 410.631C139.818 402.366 137.097 395.183 141.091 384.011C143.639 377 148.444 370.274 153.539 363.149C161.123 352.604 168.939 341.717 168.881 329.462C168.881 327.353 168.65 325.187 168.129 322.964C165.697 312.362 160.313 305.123 152.613 302.045C143.002 298.169 130.381 300.905 116.081 309.968C97.2066 321.881 80.88 320.513 63.5114 318.974C56.5639 318.404 49.3269 317.777 41.6268 317.948C21.4212 318.404 6.65786 327.41 0.231445 332.141V334.307C5.73153 330.032 20.7265 320.114 41.6847 319.658C49.3269 319.487 56.4481 320.114 63.3956 320.684C81.0537 322.223 97.7277 323.648 117.065 311.393C130.844 302.672 142.944 299.993 152.034 303.584C159.155 306.434 164.192 313.274 166.508 323.306C169.808 337.556 160.834 350.039 152.15 362.123C147.228 369.02 142.076 376.145 139.47 383.384C135.244 395.184 138.197 402.936 141.323 411.201C143.581 417.072 145.839 423.114 145.839 431.208C145.839 443.577 134.028 451.386 124.475 457.713C119.033 461.304 114.344 464.439 112.375 467.916C109.538 472.875 108.38 477.036 107.975 479.886H109.712C110.175 477.207 111.217 473.331 113.881 468.771C115.617 465.75 120.191 462.729 125.46 459.195Z" fill="white" fill-opacity="0.05"/>
<path d="M258.215 445.002C255.436 433.545 247.272 426.249 239.399 419.238C231.93 412.569 224.867 406.299 222.898 396.893C221.451 389.825 222.319 380.249 223.361 369.134C225.156 350.153 227.356 326.555 217.514 306.833C211.03 293.78 202.403 286.142 196.324 282.095C188.798 277.022 180.866 274.628 175.134 275.654C170.445 276.452 167.608 279.416 167.145 283.976C166.334 291.728 171.603 297.656 177.161 303.926C183.24 310.823 189.493 317.948 188.335 327.98C187.235 337.499 182.082 347.93 177.045 358.019C171.776 368.621 166.334 379.565 165.697 389.483C165.234 395.981 167.203 403.221 169.229 410.859C173.224 425.907 177.334 441.525 163.266 452.013C147.981 463.413 143.813 474.186 142.713 479.886H144.508C145.723 474.414 149.892 464.154 164.308 453.381C179.361 442.152 174.845 425.28 170.908 410.403C168.882 402.879 167.029 395.753 167.434 389.54C168.071 379.964 173.455 369.134 178.608 358.703C183.703 348.5 188.914 337.898 190.014 328.094C191.229 317.264 184.398 309.512 178.434 302.729C173.166 296.744 168.129 291.044 168.882 284.033C169.403 279.302 172.703 277.706 175.482 277.25C185.266 275.54 204.835 285.116 216.009 307.517C225.619 326.84 223.419 350.153 221.683 368.906C220.64 380.135 219.714 389.882 221.219 397.178C223.304 407.097 230.598 413.595 238.299 420.435C245.999 427.275 253.93 434.343 256.594 445.344C260.299 460.791 258.736 473.73 257.52 479.886H259.257C259.894 476.523 260.588 471.336 260.588 464.952C260.588 459.195 260.009 452.355 258.215 445.002Z" fill="white" fill-opacity="0.05"/>
<path d="M315.936 388.229C306.441 389.198 295.731 390.281 284.441 388.685C264.815 385.949 255.262 386.519 250.341 390.737C247.735 392.96 246.52 396.266 246.52 400.883C246.52 408.237 252.714 414.279 259.893 421.29C265.509 426.819 271.936 433.089 275.525 440.613C281.546 453.21 280.794 471.849 280.157 479.886H281.894C282.589 471.621 283.283 452.925 277.088 439.872C273.383 432.063 266.841 425.679 261.109 420.036C254.22 413.31 248.256 407.438 248.256 400.826C248.256 396.665 249.299 393.872 251.499 391.991C255.899 388.229 265.394 387.716 284.21 390.338C295.673 391.934 306.557 390.851 316.11 389.882C328.152 388.685 337.937 387.659 344.884 392.105V390.11C337.416 386.063 327.342 387.089 315.936 388.229Z" fill="white" fill-opacity="0.05"/>
<path d="M278.651 400.712C272.804 401.795 269.446 403.734 268.925 406.299C267.477 413.538 276.104 421.689 285.251 430.296C290.925 435.654 296.773 441.126 300.188 446.541C306.673 456.801 308.352 472.533 308.815 479.943H309.394C308.931 472.476 307.252 456.573 300.652 446.199C297.178 440.784 291.33 435.198 285.599 429.84C276.567 421.347 268.056 413.31 269.446 406.413C269.909 404.076 273.151 402.308 278.709 401.282C297.004 397.976 332.089 403.448 344.826 415.989V415.191C331.047 402.137 294.862 397.748 278.651 400.712Z" fill="white" fill-opacity="0.05"/>
<path d="M305.167 411.771C301.115 411.828 298.393 412.911 297.351 414.906C294.399 420.492 296.136 422.031 301.809 427.104C305.167 430.125 310.204 434.628 316.688 442.209C329.136 456.858 333.131 472.59 334.347 479.886H334.926C333.71 472.59 329.715 456.63 317.152 441.81C310.667 434.229 305.573 429.669 302.215 426.648C296.541 421.575 295.209 420.321 297.93 415.134C298.857 413.367 301.404 412.341 305.225 412.284C315.936 412.113 336.026 419.466 344.942 429.441V428.586C335.62 418.839 315.82 411.6 305.167 411.771Z" fill="white" fill-opacity="0.05"/>
<path d="M270.72 317.207C281.546 309.911 291.794 303.014 291.794 293.324C291.794 281.582 278.015 270.068 262.035 256.673C251.267 247.667 240.209 238.376 232.393 228.172C227.182 221.332 224.635 213.466 224.635 204.118C224.635 193.858 227.703 184.054 230.193 176.188C231.756 171.172 233.03 167.182 233.03 164.503C233.03 163.192 232.74 162.166 232.103 161.482C231.409 160.684 230.424 160.342 229.093 160.342C222.666 160.342 216.645 167.638 209.061 176.872C203.329 183.826 196.787 191.749 188.624 198.418C178.434 206.683 168.071 209.932 160.486 212.326C153.713 214.435 149.255 215.86 148.734 219.565C148.734 219.679 148.734 219.85 148.734 219.964C148.734 222.7 152.092 225.208 156.781 228.742C164.713 234.671 175.539 242.765 175.539 256.502C175.539 257.699 175.424 258.953 175.308 260.264C175.25 260.606 175.25 260.891 175.25 261.233C175.25 265.85 179.939 266.705 186.424 267.959C196.266 269.84 211.145 272.633 222.551 290.132C229.498 300.791 232.74 315.497 232.74 336.416C232.74 343.484 232.393 350.381 232.045 356.48C231.756 361.553 231.524 365.885 231.524 369.59C231.524 375.86 232.219 379.223 233.782 380.819C235.982 382.985 237.835 382.871 239.051 382.415C244.609 380.192 248.198 364.802 248.198 343.256C248.256 332.369 259.662 324.674 270.72 317.207ZM238.414 380.762C238.009 380.933 236.851 381.389 234.998 379.565C233.435 377.969 233.203 373.067 233.203 369.533C233.203 365.828 233.435 361.496 233.667 356.48C234.014 350.381 234.361 343.484 234.361 336.359C234.361 315.155 231.003 300.107 223.882 289.163C212.071 271.037 196.729 268.13 186.597 266.249C179.476 264.881 176.408 264.14 176.871 260.492C177.045 259.124 177.16 257.813 177.16 256.502C177.16 241.91 165.929 233.473 157.707 227.374C153.771 224.41 150.355 221.902 150.355 219.964C150.355 219.907 150.355 219.85 150.355 219.736C150.702 217.057 154.986 215.746 160.892 213.865C168.592 211.471 179.187 208.165 189.608 199.672C197.887 192.889 204.487 184.909 210.277 177.898C217.572 169.006 223.361 161.995 228.977 161.995C229.788 161.995 230.366 162.166 230.656 162.565C231.003 162.964 231.119 163.591 231.119 164.503C231.119 166.954 229.845 171.001 228.398 175.732C225.909 183.712 222.782 193.63 222.782 204.175C222.782 213.922 225.445 222.13 230.888 229.255C238.819 239.63 249.993 248.978 260.762 258.041C275.757 270.581 289.883 282.437 289.883 293.381C289.883 302.159 279.983 308.828 269.562 315.896C258.156 323.591 246.346 331.571 246.346 343.256C246.519 366.74 242.351 379.166 238.414 380.762Z" fill="white" fill-opacity="0.05"/>
<path d="M243.567 450.93C241.483 440.1 233.841 431.436 227.067 423.741C222.204 418.212 217.572 412.968 215.835 407.781C213.577 400.998 214.388 390.11 215.198 378.539C215.893 368.849 216.646 358.874 215.835 349.526C214.909 338.753 211.898 331.628 208.193 331.4C205.24 331.229 202.635 335.276 201.13 342.515C199.103 352.034 195.166 358.874 191.345 365.429C188.45 370.388 185.498 375.518 183.471 381.674C181.677 387.146 183.819 395.81 186.25 405.9C190.245 422.373 194.819 441.012 183.529 451.386C170.908 463.014 165.582 474.186 163.439 479.943H164.076C166.218 474.186 171.487 463.242 183.934 451.785C195.456 441.183 190.824 422.373 186.771 405.786C184.456 396.209 182.256 387.146 183.992 381.845C186.019 375.746 188.971 370.616 191.808 365.714C195.629 359.102 199.624 352.262 201.651 342.629C203.098 335.789 205.53 331.799 208.135 331.97C210.972 332.141 214.214 337.613 215.256 349.583C216.067 358.874 215.314 368.906 214.619 378.539C213.751 390.11 212.998 401.054 215.256 407.952C216.993 413.253 221.682 418.497 226.546 424.083C233.262 431.721 240.846 440.385 242.872 451.044C245.246 463.584 242.756 474.414 240.904 479.943H241.483C242.814 475.953 244.378 469.398 244.378 461.475C244.551 458.169 244.262 454.635 243.567 450.93Z" fill="white" fill-opacity="0.05"/>
<path d="M225.851 447.966C223.998 441.24 220.466 435.996 217.051 430.98C211.608 423 205.935 414.678 207.035 400.143C208.077 386.063 206.745 377.855 203.04 375.689C201.303 374.663 199.161 375.005 196.556 376.601C192.329 379.223 194.124 393.074 196.266 409.035C197.482 418.326 198.756 427.902 198.929 436.053C199.277 452.697 191.113 471.849 187.292 480H187.929C191.75 471.849 199.566 453.381 199.566 437.079C199.566 436.737 199.566 436.395 199.566 436.053C199.392 427.902 198.119 418.269 196.903 408.978C194.934 393.872 193.024 379.565 196.961 377.114C199.335 375.632 201.303 375.347 202.808 376.202C206.282 378.254 207.556 386.291 206.514 400.143C205.414 414.906 211.087 423.285 216.645 431.379C220.061 436.395 223.593 441.582 225.388 448.194C228.745 460.506 227.298 473.559 226.198 480H226.777C227.356 476.523 228.051 471.222 228.051 465.123C227.993 459.708 227.472 453.78 225.851 447.966Z" fill="white" fill-opacity="0.05"/>
<path d="M215.603 445.8C214.966 445.287 214.214 445.173 213.403 445.515C210.508 446.598 207.382 452.982 206.34 459.708C204.892 469.284 202.519 476.067 200.898 480H201.535C203.214 476.01 205.471 469.284 206.919 459.822C207.903 453.381 210.972 447.111 213.635 446.085C214.214 445.857 214.793 445.914 215.256 446.313C216.703 447.453 219.482 453.096 215.372 480H215.951C217.514 469.683 218.093 462.444 218.093 457.314C218.093 449.448 216.761 446.712 215.603 445.8Z" fill="white" fill-opacity="0.05"/>
<path d="M278.073 291.386C278.073 285.401 273.962 279.302 265.799 273.374C260.704 269.669 255.088 264.14 249.125 258.269C236.272 245.672 222.956 232.618 212.709 235.012C202.519 237.407 194.877 247.211 194.877 254.393C194.877 257.528 196.382 259.751 199.161 260.549C232.74 270.923 238.935 289.391 240.614 304.325C241.367 311.165 243.046 314.813 245.883 316.124C249.588 317.777 255.146 315.668 265.799 308.6C273.962 303.185 278.073 297.371 278.073 291.386ZM246.172 315.611C243.509 314.414 241.946 310.823 241.193 304.268C240.093 294.35 237.141 286.712 231.93 280.043C224.982 271.208 214.33 264.653 199.277 260.036C196.093 259.067 195.398 256.445 195.398 254.393C195.398 248.237 201.998 238.091 212.766 235.582C222.724 233.245 235.925 246.185 248.662 258.668C254.625 264.539 260.299 270.068 265.394 273.773C273.383 279.587 277.436 285.515 277.436 291.329C277.436 297.143 273.383 302.786 265.394 308.087C255.204 315.041 249.588 317.207 246.172 315.611Z" fill="white" fill-opacity="0.05"/>
<path d="M214.561 197.05C214.561 190.153 212.014 188.671 209.814 188.671C203.85 188.557 201.766 192.319 199.103 197.05C196.671 201.325 193.661 206.626 186.771 211.528C183.008 214.207 180.171 215.86 178.087 217.114C174.729 219.109 173.166 220.021 173.166 222.016C173.166 223.27 173.803 224.638 175.018 227.203C175.308 227.773 175.539 228.4 175.887 229.027C176.697 230.794 177.334 232.504 177.913 234.157C179.418 238.204 180.692 241.738 183.761 242.935C186.308 243.904 189.724 243.22 194.529 240.769C205.24 235.354 214.561 209.704 214.561 197.05ZM184.455 241.339C182.082 240.427 180.982 237.406 179.592 233.587C179.013 231.991 178.318 230.167 177.508 228.343C177.218 227.659 176.929 227.032 176.64 226.462C175.597 224.296 174.961 222.871 174.961 222.016C174.961 221.047 175.945 220.42 179.071 218.596C181.155 217.342 184.05 215.632 187.871 212.953C195.108 207.88 198.177 202.351 200.666 197.962C203.271 193.402 204.95 190.381 209.872 190.438C212.535 190.495 212.882 194.656 212.882 197.107C212.882 209.305 203.677 234.271 193.834 239.287C189.492 241.396 186.424 242.137 184.455 241.339Z" fill="white" fill-opacity="0.05"/>
<path d="M101.665 460.449C109.133 453.666 116.891 446.712 120.481 436.11C124.302 424.824 123.491 416.73 122.681 408.18C121.986 401.112 121.291 393.758 123.434 384.41C125.344 376.202 132.407 366.626 139.239 357.335C147.287 346.448 154.929 335.96 154.929 327.581C154.929 325.187 154.292 322.964 152.902 320.969C145.897 310.937 136.113 316.409 124.765 322.736C118.57 326.156 112.202 329.747 105.486 331.4C94.312 334.136 84.2382 333.281 72.6012 332.312C64.0905 331.571 55.2904 330.83 44.8692 331.4C25.6478 332.369 7.41071 345.536 0.289551 351.293V352.034C7.06334 346.505 25.4741 332.996 44.8692 331.97C55.2325 331.457 64.0326 332.198 72.4854 332.882C84.1803 333.851 94.312 334.706 105.602 331.97C112.433 330.317 118.86 326.726 125.055 323.249C136.171 317.036 145.781 311.678 152.439 321.311C153.771 323.192 154.35 325.301 154.35 327.581C154.35 335.789 146.708 346.163 138.776 356.993C131.944 366.341 124.823 375.974 122.912 384.296C120.712 393.701 121.465 401.112 122.16 408.237C122.97 416.73 123.781 424.767 120.018 435.939C116.486 446.37 108.786 453.324 101.375 460.05C95.0068 465.807 88.4646 471.735 84.2382 480H84.875C88.9277 471.906 95.3541 466.092 101.665 460.449Z" fill="white" fill-opacity="0.05"/>
<path d="M89.1592 439.644C106.817 428.643 107.165 416.16 107.57 402.993C107.686 398.09 107.859 393.017 108.902 387.944C110.638 379.679 115.849 371.357 120.423 363.947C125.054 356.537 129.165 349.982 129.165 344.738C129.165 343.256 128.818 341.888 128.065 340.634C125.286 336.017 120.075 338.297 112.202 341.774C102.649 345.992 88.1749 352.319 68.3746 350.381C33.8109 347.018 16.037 355.055 0.173584 369.533V370.331C16.037 355.796 33.6951 347.645 68.3167 350.951C88.2907 352.889 102.823 346.505 112.491 342.287C120.365 338.867 125.112 336.758 127.602 340.919C130.786 346.22 125.749 354.314 119.96 363.605C115.328 371.015 110.117 379.451 108.323 387.773C107.223 392.903 107.107 397.976 106.933 402.935C106.528 415.932 106.18 428.244 88.8118 439.131C70.1694 450.759 61.9482 471.222 59.2271 479.886H59.8061C62.5851 471.279 70.7484 451.101 89.1592 439.644Z" fill="white" fill-opacity="0.05"/>
<path d="M60.8484 436.224C64.7853 433.659 68.4906 431.778 71.7327 430.125C81.2855 425.28 87.654 422.031 89.8541 407.895C91.0699 400.256 93.5015 393.302 95.7015 387.146C97.9594 380.705 99.9279 375.233 99.9279 370.616C99.9279 368.621 99.5805 366.74 98.7121 365.03C95.5278 358.703 87.3646 359.957 73.817 361.952C66.9274 362.978 58.4168 364.232 48.4008 364.859C25.6478 366.227 7.41071 381.959 0.289551 389.027V389.825C7.00544 383.042 25.4162 366.797 48.4008 365.429C58.4168 364.859 66.9853 363.548 73.8749 362.522C87.133 360.527 95.1805 359.33 98.191 365.258C100.912 370.673 98.4226 377.855 95.1805 386.918C92.9804 393.074 90.5488 400.085 89.333 407.781C87.1909 421.632 80.9381 424.824 71.5591 429.612C68.3169 431.265 64.6116 433.146 60.6168 435.711C48.285 443.691 43.3639 469.797 41.9165 479.943H42.4955C43.9428 469.797 48.8061 444.033 60.8484 436.224Z" fill="white" fill-opacity="0.05"/>
<path d="M68.5483 416.445C76.1326 412.056 82.3274 401.111 82.3274 390.68C82.3274 387.545 81.7485 384.467 80.5327 381.617C79.259 378.767 76.8852 376.715 73.4115 375.632C63.3377 372.326 45.969 377.342 34.0425 384.068C21.537 391.136 6.59996 403.106 0.231445 408.351V409.092C6.36838 404.018 21.6528 391.706 34.332 384.581C46.1427 377.969 63.2798 372.953 73.1799 376.202C76.48 377.285 78.7379 379.223 79.9537 381.902C85.2801 393.986 77.8695 410.403 68.2009 415.989C60.1534 420.663 37.4004 435.483 29.2372 447.909C23.5055 456.573 19.7423 472.476 18.1791 479.943H18.758C20.3212 472.476 24.0265 456.801 29.7003 448.194C37.8636 435.882 60.5008 421.119 68.5483 416.445Z" fill="white" fill-opacity="0.05"/>
<path d="M47.7059 411.657C57.1428 404.588 64.264 399.23 64.264 394.271C64.264 393.587 64.1482 392.96 63.8587 392.333C63.4535 391.364 62.4692 390.167 59.8639 390.053C53.7849 389.654 40.8742 395.012 27.674 403.278C15.8054 410.688 6.19469 418.896 0.231445 426.534V429.441C5.84732 421.518 15.9212 412.683 28.6582 404.703C41.3373 396.722 54.1323 391.421 59.806 391.763C61.1955 391.82 62.0061 392.276 62.2955 392.96C64.0324 397.349 56.3902 403.049 46.6637 410.346C38.6741 416.331 28.7161 423.798 20.6107 433.089C6.42628 449.334 4.16835 470.994 3.93676 480H5.67363C5.96311 471.222 8.10525 450.075 21.9423 434.229C29.9319 425.052 39.7742 417.642 47.7059 411.657Z" fill="white" fill-opacity="0.05"/>
<path d="M58.0692 236.608C58.0692 236.437 58.0113 236.323 57.9534 236.209C57.0271 234.214 48.9796 235.582 34.8531 238.204C23.5055 240.313 9.66846 242.878 0.23148 242.764V243.335C9.78426 243.449 23.6213 240.883 34.9688 238.774C46.1427 236.722 56.6797 234.784 57.4324 236.437C57.5481 236.779 57.4324 237.634 54.5955 239.743C41.3953 249.89 10.0158 254.735 0.173584 255.989V256.559C9.95794 255.248 41.6268 250.403 54.9428 240.142C57.085 238.603 58.0692 237.463 58.0692 236.608Z" fill="white" fill-opacity="0.05"/>
<path d="M308.352 350.439C286.062 354.258 281.951 350.61 281.257 348.843C280.272 346.392 283.225 342.687 289.362 338.64C299.899 331.686 331.684 308.601 331.684 283.634C331.684 281.183 331.394 278.732 330.699 276.224C326.473 260.378 305.052 248.009 286.12 237.122C273.325 229.769 261.283 222.815 256.535 215.861C250.63 207.311 254.046 191.978 257.983 174.251C261.862 156.98 266.204 137.372 262.383 120.385C259.141 105.964 250.109 96.7873 235.519 93.1393C223.303 90.0613 209.64 91.4293 200.608 92.3413L199.161 92.4553C190.476 93.3103 187.292 85.7292 183.297 76.0962C179.187 66.2921 174.555 55.1201 162.686 49.021C137.444 35.9109 108.38 34.6569 83.022 45.487C67.8534 51.985 56.969 52.726 48.632 47.881C37.9214 41.668 31.2634 25.9929 28.2528 0.0577087H27.6738C30.6844 26.2209 37.4582 42.067 48.2847 48.337C56.7953 53.296 67.9113 52.555 83.1957 46C108.438 35.2269 137.27 36.4809 162.397 49.477C174.092 55.5191 178.666 66.5201 182.718 76.2672C186.655 85.7292 190.071 93.8803 199.161 92.9683L200.608 92.8543C209.582 91.9423 223.187 90.6313 235.288 93.6523C249.646 97.2433 258.562 106.249 261.746 120.499C265.509 137.372 261.167 156.923 257.346 174.137C253.351 191.978 249.935 207.425 255.956 216.203C260.819 223.214 272.92 230.225 285.715 237.635C304.531 248.465 325.836 260.777 330.005 276.395C337.3 303.756 300.42 330.66 288.899 338.241C282.415 342.516 279.462 346.392 280.62 349.128C282.241 353.175 292.141 353.859 308.352 351.066C329.31 347.475 340.136 347.475 344.768 347.817V347.247C340.194 346.791 329.426 346.791 308.352 350.439Z" fill="white" fill-opacity="0.05"/>
<path d="M22.6957 109.1C27.0379 100.949 31.4958 94.9636 35.0853 90.1755C40.0644 83.5635 43.596 78.8325 43.596 73.0754C43.596 70.9094 43.0749 68.5724 41.917 65.9504C40.1802 62.0173 37.517 58.6543 34.3327 54.7213C26.1694 44.5752 16.0956 32.0352 15.6903 0.0579529H15.1114C15.5745 32.2632 26.1115 45.3732 33.9274 55.0633C37.0538 58.9393 39.717 62.2453 41.396 66.1784C45.3908 75.4124 41.3381 80.8845 34.6222 89.8905C31.0327 94.7356 26.5168 100.721 22.1746 108.929C13.5482 125.06 4.69014 129.221 0.232178 130.247V130.874C4.74804 129.905 13.7798 125.858 22.6957 109.1Z" fill="white" fill-opacity="0.05"/>
<path d="M17.8896 93.6516C22.1739 85.2725 24.8371 78.2615 24.8371 71.7065C24.8371 65.8924 22.7529 60.4204 17.7739 54.6064C13.258 49.2483 10.9422 38.7603 8.74214 28.5572C6.6 18.4681 4.51576 8.83506 0.23148 4.10403V6.95405C3.41574 11.8561 5.2684 20.4631 7.06316 28.8992C9.32109 39.2733 11.6369 49.9893 16.4423 55.6894C26.4003 67.3744 24.2003 77.3495 16.3265 92.9106C10.8264 103.741 3.9368 105.28 0.173584 105.223V106.876C4.45786 106.876 12.1001 105.109 17.8896 93.6516Z" fill="white" fill-opacity="0.05"/>
<path d="M14.4738 71.9914C14.4738 62.3584 5.03678 54.0363 0.231445 50.3883V51.1293C5.09468 54.8343 13.8948 62.8144 13.8948 71.9914C13.8948 81.1685 5.03678 88.4075 0.231445 91.7136V92.3976C5.09468 89.1485 14.4738 81.6245 14.4738 71.9914Z" fill="white" fill-opacity="0.05"/>
<path d="M319.41 325.985C313.91 331.286 310.263 334.82 310.494 337.157C310.552 337.727 310.842 338.24 311.421 338.639C316.747 342.344 337.068 335.789 344.884 333.053V332.426C337.3 335.048 316.863 341.66 311.768 338.126C311.363 337.841 311.131 337.499 311.073 337.043C310.9 334.991 314.836 331.172 319.815 326.327C327.574 318.803 338.632 308.087 344.884 294.407V293.039C338.747 307.232 327.4 318.29 319.41 325.985Z" fill="white" fill-opacity="0.05"/>
<path d="M294.746 55.5753C278.536 73.7584 280.851 100.435 282.588 119.929C282.762 121.753 282.878 123.577 283.051 125.287C284.267 141.076 278.825 155.896 274.02 168.949C269.678 180.748 265.914 190.894 268.057 199.045C272.051 214.321 288.841 222.016 306.673 230.167C308.931 231.193 311.305 232.276 313.562 233.359C328.557 240.427 340.194 252.683 344.884 258.098V255.476C339.442 249.434 328.326 238.432 314.315 231.82C311.999 230.737 309.626 229.654 307.368 228.628C289.941 220.648 273.557 213.067 269.735 198.589C267.709 190.951 271.414 180.976 275.641 169.519C280.504 156.295 286.062 141.304 284.788 125.116C284.673 123.406 284.499 121.639 284.325 119.758C282.646 100.606 280.388 74.3284 296.078 56.6583C306.094 45.4293 322.478 38.9312 344.884 37.4492V35.7392C321.957 37.2782 305.11 43.9472 294.746 55.5753Z" fill="white" fill-opacity="0.05"/>
<path d="M300.999 114.115C301.231 119.758 301.462 125.515 301.288 130.873C300.883 145.864 295.499 157.891 290.809 168.493C288.436 173.794 286.236 178.81 284.846 183.598C283.63 187.816 284.093 191.806 286.236 195.511C291.446 204.574 305.457 209.875 316.226 212.725C329.773 216.316 340.194 226.804 344.884 232.276V231.421C339.963 225.778 329.657 215.746 316.341 212.212C305.631 209.362 291.794 204.118 286.699 195.283C284.672 191.749 284.209 187.873 285.367 183.826C286.757 179.038 288.957 174.022 291.33 168.778C296.078 158.119 301.52 146.035 301.867 130.93C301.983 125.572 301.81 119.758 301.578 114.115C300.883 95.9316 300.188 77.0645 311.015 67.4314C322.073 57.5703 338.342 55.8033 344.942 55.5183V54.9483C338.284 55.2333 321.841 57.0573 310.668 67.0324C299.552 76.7795 300.246 95.7606 300.999 114.115Z" fill="white" fill-opacity="0.05"/>
<path d="M315.299 88.4646C313.678 95.8176 314.026 104.938 314.315 114.514C314.836 128.422 315.357 144.211 309.973 157.891C309.336 159.544 308.699 161.083 308.063 162.622C302.852 175.618 299.378 184.168 302.562 190.495C304.473 194.314 308.699 196.993 315.936 198.988C330.815 203.149 340.658 208.564 344.942 211.243V209.248C340.195 206.398 330.642 201.382 316.457 197.392C309.741 195.511 305.862 193.117 304.184 189.754C301.347 184.111 304.705 175.789 309.741 163.249C310.378 161.71 311.015 160.171 311.652 158.518C317.21 144.553 316.631 128.536 316.11 114.457C315.763 104.938 315.473 95.9886 317.036 88.8066C320.047 75.1265 337.821 73.0745 344.942 72.8465V71.1364C337.473 71.4214 318.542 73.5875 315.299 88.4646Z" fill="white" fill-opacity="0.05"/>
<path d="M329.136 124.888C329.136 127.909 329.079 131.044 329.021 134.407C328.731 152.191 323.578 162.622 320.163 169.519C317.384 175.048 315.763 178.411 318.484 181.603C323.173 187.189 338.458 189.07 344.942 189.583V189.013C338.515 188.443 323.405 186.505 318.947 181.204C316.457 178.297 318.078 175.048 320.742 169.747C324.157 162.793 329.368 152.305 329.715 134.407C329.773 131.044 329.773 127.909 329.831 124.888C329.947 108.13 330.063 97.0716 335.447 92.1126C337.647 90.0606 340.716 89.0346 345 88.9206V88.3506C340.6 88.4646 337.358 89.5476 335.042 91.7136C329.31 96.8436 329.252 107.959 329.136 124.888Z" fill="white" fill-opacity="0.05"/>
<path d="M341.932 104.026C340.195 106.135 340.6 109.555 341.295 115.312C341.7 119.017 342.221 123.634 342.337 129.334C342.626 143.185 340.6 151.507 338.921 158.176C338.168 161.14 337.59 163.648 337.184 166.27C336.895 168.55 337.358 170.26 338.69 171.4C340.311 172.882 342.858 173.167 344.884 173.11V172.54C342.974 172.597 340.542 172.369 339.095 171.001C337.937 169.975 337.532 168.379 337.763 166.327C338.111 163.762 338.747 161.197 339.442 158.29C341.121 151.564 343.148 143.185 342.858 129.277C342.742 123.52 342.221 118.903 341.758 115.198C341.121 109.612 340.716 106.249 342.279 104.368C342.858 103.684 343.669 103.171 344.769 102.829V102.202C343.495 102.658 342.569 103.228 341.932 104.026Z" fill="white" fill-opacity="0.05"/>
<path d="M276.509 71.1941C274.772 81.0552 273.267 89.5483 268.172 91.8853C262.209 94.5643 256.072 90.9163 248.893 86.6982C242.698 82.9932 235.635 78.8322 227.703 78.5472C223.593 78.3762 219.772 78.7182 216.124 79.0602C204.95 80.0862 196.845 80.7702 191.113 66.5201L190.766 65.6081C183.413 47.197 177.624 32.6619 140.281 26.9049C119.323 23.7129 103.344 27.3039 90.4907 30.1539C79.8379 32.5479 71.443 34.4289 63.5113 32.1489C49.7901 28.1589 48.4585 8.66476 48.5743 0.0577087H47.9953C47.9374 8.77876 49.3269 28.6149 63.3376 32.6619C71.443 34.9989 80.359 33.0039 90.6644 30.7239C103.459 27.8739 119.438 24.2829 140.281 27.4749C177.218 33.1749 182.718 46.855 190.303 65.7791L190.65 66.6911C196.498 81.3402 205.24 80.5422 216.24 79.5732C219.887 79.2312 223.651 78.8892 227.761 79.0602C235.577 79.3452 242.525 83.4492 248.719 87.1542C256.014 91.4863 262.267 95.2483 268.52 92.3983C273.904 89.9473 275.467 81.2832 277.204 71.3082C279.346 59.1671 281.778 45.43 291.273 36.7089C305.862 23.3139 335.505 19.4378 345 18.4688V17.8988C335.563 18.8108 305.631 22.7438 290.867 36.2529C281.141 45.145 278.594 59.5661 276.509 71.1941Z" fill="white" fill-opacity="0.05"/>
<path d="M73.4697 13.9081C76.3066 17.3281 80.533 19.2091 85.9752 19.3231C92.6332 19.4941 100.102 17.7271 108.728 15.6181C124.823 11.6851 144.913 6.84004 166.219 15.2191C184.456 22.3441 189.377 32.0342 193.719 40.5843C197.077 47.1963 199.972 52.8963 208.135 55.9174C216.009 58.8244 221.219 59.6794 225.793 60.4204C231.872 61.3894 236.272 62.0734 243.683 67.3174C250.167 71.8774 255.378 73.3025 259.662 71.6494C264.41 69.8254 267.767 64.2394 269.794 54.6063L269.967 53.6943C273.383 37.5632 278.883 11.6281 321.958 0.0570004H316.052C301.347 4.84503 289.999 11.8561 282.241 21.0331C272.746 32.2622 270.199 44.4603 268.288 53.3523L268.115 54.2643C266.204 63.1564 263.194 68.4574 259.025 70.0534C255.378 71.4784 250.572 70.0534 244.667 65.8924C236.967 60.4204 232.162 59.6794 226.025 58.7104C221.509 57.9694 216.414 57.1714 208.714 54.3213C201.187 51.5283 198.408 46.1133 195.224 39.7862C190.94 31.4072 185.671 20.9761 166.797 13.5661C144.971 5.01603 124.592 9.91806 108.207 13.9081C99.6964 15.9601 92.3437 17.7271 85.9173 17.5561C80.9383 17.3851 77.175 15.7891 74.6855 12.7681C71.5592 8.94906 71.0381 3.59102 71.096 0H69.3591C69.417 3.93302 69.996 9.63306 73.4697 13.9081Z" fill="white" fill-opacity="0.05"/>
<path d="M203.213 27.0189C213.982 36.4239 227.008 42.181 233.84 44.803C242.351 48.052 246.925 48.679 250.109 47.026C254.625 44.689 256.246 37.9629 259.314 25.6509L260.067 22.6869C263.077 10.2608 273.035 3.59173 281.72 0.0577087H280.272C271.762 3.76273 262.441 10.4888 259.488 22.5159L258.735 25.4799C255.725 37.6209 254.104 44.29 249.819 46.513C246.751 48.109 242.351 47.482 234.014 44.29C223.882 40.414 191.808 26.1639 186.945 0.114709H186.366C188.16 9.80477 193.776 18.8108 203.213 27.0189Z" fill="white" fill-opacity="0.05"/>
<path d="M223.535 23.9979C231.872 28.2159 237.43 29.2989 241.135 27.5319C245.13 25.5939 246.635 20.4068 247.677 15.1058C248.951 8.43676 253.756 3.30673 257.693 0.114709H256.825C252.888 3.42073 248.372 8.43676 247.098 15.0488C245.709 22.1168 243.914 25.5939 240.904 27.0759C237.372 28.7859 231.93 27.6459 223.824 23.5419C211.782 17.3858 206.224 6.15675 204.024 0.0577087H203.387C205.587 6.21375 211.203 17.7848 223.535 23.9979Z" fill="white" fill-opacity="0.05"/>
<path d="M232.856 12.2558C238.125 12.7688 241.656 5.01674 243.335 0.0577087H242.698C241.019 4.90274 237.662 12.1418 232.914 11.6858C228.167 11.2298 221.567 4.61774 217.514 0.0577087H216.761C220.756 4.67474 227.761 11.7998 232.856 12.2558Z" fill="white" fill-opacity="0.05"/>
</svg>
